G04 EAGLE Gerber RS-274X export*
G75*
%MOMM*%
%FSLAX34Y34*%
%LPD*%
%INBottom Copper*%
%IPPOS*%
%AMOC8*
5,1,8,0,0,1.08239X$1,22.5*%
G01*
%ADD10R,1.508000X1.508000*%
%ADD11C,1.508000*%
%ADD12C,1.320800*%
%ADD13C,1.524000*%
%ADD14R,1.879600X1.879600*%
%ADD15P,2.034460X8X22.500000*%
%ADD16R,1.860000X1.860000*%
%ADD17C,1.860000*%
%ADD18C,1.430000*%
%ADD19P,3.409096X8X22.500000*%


D10*
X284550Y533400D03*
D11*
X198050Y533400D03*
D10*
X729050Y508000D03*
D11*
X642550Y508000D03*
D10*
X985450Y508000D03*
D11*
X1071950Y508000D03*
D12*
X1231900Y742696D02*
X1231900Y755904D01*
X1257300Y755904D02*
X1257300Y742696D01*
X590804Y317500D02*
X577596Y317500D01*
X577596Y266700D02*
X590804Y266700D01*
X590804Y292100D02*
X577596Y292100D01*
D13*
X1059180Y596900D02*
X1074420Y596900D01*
X997966Y596900D02*
X982726Y596900D01*
X1059180Y748538D02*
X1074420Y748538D01*
X1074420Y850646D02*
X1059180Y850646D01*
X998220Y800100D02*
X982980Y800100D01*
D14*
X781050Y762000D03*
D15*
X781050Y736600D03*
X781050Y711200D03*
D16*
X464800Y482600D03*
D17*
X464800Y508000D03*
X464800Y533400D03*
D18*
X787400Y508000D03*
X889000Y508000D03*
X584200Y406400D03*
X584200Y508000D03*
X711200Y292100D03*
X812800Y292100D03*
X1257300Y673100D03*
X1257300Y571500D03*
D12*
X889000Y374904D02*
X889000Y361696D01*
X889000Y298704D02*
X889000Y285496D01*
D19*
X1003300Y381000D03*
X1054100Y381000D03*
D11*
X469900Y279400D03*
X469900Y254000D03*
X469900Y228600D03*
M02*
