G04 EAGLE Gerber RS-274X export*
G75*
%MOMM*%
%FSLAX34Y34*%
%LPD*%
%IN*%
%IPPOS*%
%AMOC8*
5,1,8,0,0,1.08239X$1,22.5*%
G01*
%ADD10C,0.254000*%


D10*
X0Y0D02*
X1600000Y0D01*
X1600000Y1000000D01*
X0Y1000000D01*
X0Y0D01*
X1276096Y799758D02*
X1276019Y799077D01*
X1275867Y798410D01*
X1275641Y797764D01*
X1275344Y797147D01*
X1274980Y796567D01*
X1274553Y796032D01*
X1274068Y795547D01*
X1273533Y795121D01*
X1272953Y794756D01*
X1272337Y794459D01*
X1271690Y794233D01*
X1271023Y794081D01*
X1270342Y794004D01*
X1269658Y794004D01*
X1268977Y794081D01*
X1268310Y794233D01*
X1267664Y794459D01*
X1267047Y794756D01*
X1266467Y795121D01*
X1265932Y795547D01*
X1265447Y796032D01*
X1265021Y796567D01*
X1264656Y797147D01*
X1264359Y797764D01*
X1264133Y798410D01*
X1263981Y799077D01*
X1263904Y799758D01*
X1263904Y800442D01*
X1263981Y801123D01*
X1264133Y801790D01*
X1264359Y802437D01*
X1264656Y803053D01*
X1265021Y803633D01*
X1265447Y804168D01*
X1265932Y804653D01*
X1266467Y805080D01*
X1267047Y805444D01*
X1267664Y805741D01*
X1268310Y805967D01*
X1268977Y806119D01*
X1269658Y806196D01*
X1270342Y806196D01*
X1271023Y806119D01*
X1271690Y805967D01*
X1272337Y805741D01*
X1272953Y805444D01*
X1273533Y805080D01*
X1274068Y804653D01*
X1274553Y804168D01*
X1274980Y803633D01*
X1275344Y803053D01*
X1275641Y802437D01*
X1275867Y801790D01*
X1276019Y801123D01*
X1276096Y800442D01*
X1276096Y799758D01*
X1225296Y799758D02*
X1225219Y799077D01*
X1225067Y798410D01*
X1224841Y797764D01*
X1224544Y797147D01*
X1224180Y796567D01*
X1223753Y796032D01*
X1223268Y795547D01*
X1222733Y795121D01*
X1222153Y794756D01*
X1221537Y794459D01*
X1220890Y794233D01*
X1220223Y794081D01*
X1219542Y794004D01*
X1218858Y794004D01*
X1218177Y794081D01*
X1217510Y794233D01*
X1216864Y794459D01*
X1216247Y794756D01*
X1215667Y795121D01*
X1215132Y795547D01*
X1214647Y796032D01*
X1214221Y796567D01*
X1213856Y797147D01*
X1213559Y797764D01*
X1213333Y798410D01*
X1213181Y799077D01*
X1213104Y799758D01*
X1213104Y800442D01*
X1213181Y801123D01*
X1213333Y801790D01*
X1213559Y802437D01*
X1213856Y803053D01*
X1214221Y803633D01*
X1214647Y804168D01*
X1215132Y804653D01*
X1215667Y805080D01*
X1216247Y805444D01*
X1216864Y805741D01*
X1217510Y805967D01*
X1218177Y806119D01*
X1218858Y806196D01*
X1219542Y806196D01*
X1220223Y806119D01*
X1220890Y805967D01*
X1221537Y805741D01*
X1222153Y805444D01*
X1222733Y805080D01*
X1223268Y804653D01*
X1223753Y804168D01*
X1224180Y803633D01*
X1224544Y803053D01*
X1224841Y802437D01*
X1225067Y801790D01*
X1225219Y801123D01*
X1225296Y800442D01*
X1225296Y799758D01*
M02*
