G04 EAGLE Gerber RS-274X export*
G75*
%MOMM*%
%FSLAX34Y34*%
%LPD*%
%INSilkscreen Top*%
%IPPOS*%
%AMOC8*
5,1,8,0,0,1.08239X$1,22.5*%
G01*
%ADD10C,0.127000*%
%ADD11R,0.250000X2.350000*%
%ADD12C,0.152400*%
%ADD13C,0.050800*%
%ADD14C,0.177800*%
%ADD15C,0.120000*%
%ADD16C,0.101600*%
%ADD17R,1.778000X0.381000*%
%ADD18R,0.508000X1.397000*%
%ADD19C,0.254000*%


D10*
X218050Y521650D02*
X218050Y533400D01*
X218050Y545150D01*
X264550Y545150D01*
X264550Y533400D01*
X264550Y521650D01*
X218050Y521650D01*
X264550Y533400D02*
X273800Y533400D01*
X218050Y533400D02*
X208800Y533400D01*
D11*
X260050Y533400D03*
D10*
X277504Y515265D02*
X277504Y503835D01*
X277504Y515265D02*
X280679Y515265D01*
X280790Y515263D01*
X280900Y515257D01*
X281011Y515248D01*
X281121Y515234D01*
X281230Y515217D01*
X281339Y515196D01*
X281447Y515171D01*
X281554Y515142D01*
X281660Y515110D01*
X281765Y515074D01*
X281868Y515034D01*
X281970Y514991D01*
X282071Y514944D01*
X282170Y514893D01*
X282267Y514840D01*
X282361Y514783D01*
X282454Y514722D01*
X282545Y514659D01*
X282634Y514592D01*
X282720Y514522D01*
X282803Y514449D01*
X282885Y514374D01*
X282963Y514296D01*
X283038Y514214D01*
X283111Y514131D01*
X283181Y514045D01*
X283248Y513956D01*
X283311Y513865D01*
X283372Y513772D01*
X283429Y513678D01*
X283482Y513581D01*
X283533Y513482D01*
X283580Y513381D01*
X283623Y513279D01*
X283663Y513176D01*
X283699Y513071D01*
X283731Y512965D01*
X283760Y512858D01*
X283785Y512750D01*
X283806Y512641D01*
X283823Y512532D01*
X283837Y512422D01*
X283846Y512311D01*
X283852Y512201D01*
X283854Y512090D01*
X283854Y507010D01*
X283852Y506899D01*
X283846Y506789D01*
X283837Y506678D01*
X283823Y506568D01*
X283806Y506459D01*
X283785Y506350D01*
X283760Y506242D01*
X283731Y506135D01*
X283699Y506029D01*
X283663Y505924D01*
X283623Y505821D01*
X283580Y505719D01*
X283533Y505618D01*
X283482Y505519D01*
X283429Y505422D01*
X283372Y505328D01*
X283311Y505235D01*
X283248Y505144D01*
X283181Y505055D01*
X283111Y504969D01*
X283038Y504886D01*
X282963Y504804D01*
X282885Y504726D01*
X282803Y504651D01*
X282720Y504578D01*
X282634Y504508D01*
X282545Y504441D01*
X282454Y504378D01*
X282361Y504317D01*
X282267Y504260D01*
X282170Y504207D01*
X282071Y504156D01*
X281970Y504109D01*
X281868Y504066D01*
X281765Y504026D01*
X281660Y503990D01*
X281554Y503958D01*
X281447Y503929D01*
X281339Y503904D01*
X281230Y503883D01*
X281121Y503866D01*
X281011Y503852D01*
X280900Y503843D01*
X280790Y503837D01*
X280679Y503835D01*
X277504Y503835D01*
X289315Y512725D02*
X292490Y515265D01*
X292490Y503835D01*
X289315Y503835D02*
X295665Y503835D01*
X662550Y508000D02*
X662550Y496250D01*
X662550Y508000D02*
X662550Y519750D01*
X709050Y519750D01*
X709050Y508000D01*
X709050Y496250D01*
X662550Y496250D01*
X709050Y508000D02*
X718300Y508000D01*
X662550Y508000D02*
X653300Y508000D01*
D11*
X704550Y508000D03*
D10*
X722004Y489865D02*
X722004Y478435D01*
X722004Y489865D02*
X725179Y489865D01*
X725290Y489863D01*
X725400Y489857D01*
X725511Y489848D01*
X725621Y489834D01*
X725730Y489817D01*
X725839Y489796D01*
X725947Y489771D01*
X726054Y489742D01*
X726160Y489710D01*
X726265Y489674D01*
X726368Y489634D01*
X726470Y489591D01*
X726571Y489544D01*
X726670Y489493D01*
X726767Y489440D01*
X726861Y489383D01*
X726954Y489322D01*
X727045Y489259D01*
X727134Y489192D01*
X727220Y489122D01*
X727303Y489049D01*
X727385Y488974D01*
X727463Y488896D01*
X727538Y488814D01*
X727611Y488731D01*
X727681Y488645D01*
X727748Y488556D01*
X727811Y488465D01*
X727872Y488372D01*
X727929Y488278D01*
X727982Y488181D01*
X728033Y488082D01*
X728080Y487981D01*
X728123Y487879D01*
X728163Y487776D01*
X728199Y487671D01*
X728231Y487565D01*
X728260Y487458D01*
X728285Y487350D01*
X728306Y487241D01*
X728323Y487132D01*
X728337Y487022D01*
X728346Y486911D01*
X728352Y486801D01*
X728354Y486690D01*
X728354Y481610D01*
X728352Y481499D01*
X728346Y481389D01*
X728337Y481278D01*
X728323Y481168D01*
X728306Y481059D01*
X728285Y480950D01*
X728260Y480842D01*
X728231Y480735D01*
X728199Y480629D01*
X728163Y480524D01*
X728123Y480421D01*
X728080Y480319D01*
X728033Y480218D01*
X727982Y480119D01*
X727929Y480022D01*
X727872Y479928D01*
X727811Y479835D01*
X727748Y479744D01*
X727681Y479655D01*
X727611Y479569D01*
X727538Y479486D01*
X727463Y479404D01*
X727385Y479326D01*
X727303Y479251D01*
X727220Y479178D01*
X727134Y479108D01*
X727045Y479041D01*
X726954Y478978D01*
X726861Y478917D01*
X726767Y478860D01*
X726670Y478807D01*
X726571Y478756D01*
X726470Y478709D01*
X726368Y478666D01*
X726265Y478626D01*
X726160Y478590D01*
X726054Y478558D01*
X725947Y478529D01*
X725839Y478504D01*
X725730Y478483D01*
X725621Y478466D01*
X725511Y478452D01*
X725400Y478443D01*
X725290Y478437D01*
X725179Y478435D01*
X722004Y478435D01*
X737308Y489866D02*
X737412Y489864D01*
X737517Y489858D01*
X737621Y489849D01*
X737724Y489836D01*
X737827Y489818D01*
X737929Y489798D01*
X738031Y489773D01*
X738131Y489745D01*
X738231Y489713D01*
X738329Y489677D01*
X738426Y489638D01*
X738521Y489596D01*
X738615Y489550D01*
X738707Y489500D01*
X738797Y489448D01*
X738885Y489392D01*
X738971Y489332D01*
X739055Y489270D01*
X739136Y489205D01*
X739215Y489137D01*
X739292Y489065D01*
X739365Y488992D01*
X739437Y488915D01*
X739505Y488836D01*
X739570Y488755D01*
X739632Y488671D01*
X739692Y488585D01*
X739748Y488497D01*
X739800Y488407D01*
X739850Y488315D01*
X739896Y488221D01*
X739938Y488126D01*
X739977Y488029D01*
X740013Y487931D01*
X740045Y487831D01*
X740073Y487731D01*
X740098Y487629D01*
X740118Y487527D01*
X740136Y487424D01*
X740149Y487321D01*
X740158Y487217D01*
X740164Y487112D01*
X740166Y487008D01*
X737308Y489865D02*
X737190Y489863D01*
X737071Y489857D01*
X736953Y489848D01*
X736836Y489835D01*
X736719Y489817D01*
X736602Y489797D01*
X736486Y489772D01*
X736371Y489744D01*
X736258Y489711D01*
X736145Y489676D01*
X736033Y489636D01*
X735923Y489594D01*
X735814Y489547D01*
X735706Y489497D01*
X735601Y489444D01*
X735497Y489387D01*
X735395Y489327D01*
X735295Y489264D01*
X735197Y489197D01*
X735101Y489128D01*
X735008Y489055D01*
X734917Y488979D01*
X734828Y488901D01*
X734742Y488819D01*
X734659Y488735D01*
X734578Y488649D01*
X734501Y488559D01*
X734426Y488468D01*
X734354Y488374D01*
X734285Y488277D01*
X734220Y488179D01*
X734157Y488078D01*
X734098Y487975D01*
X734042Y487871D01*
X733990Y487765D01*
X733941Y487657D01*
X733896Y487548D01*
X733854Y487437D01*
X733816Y487325D01*
X739213Y484786D02*
X739289Y484861D01*
X739364Y484940D01*
X739435Y485021D01*
X739504Y485105D01*
X739569Y485191D01*
X739631Y485279D01*
X739691Y485369D01*
X739747Y485461D01*
X739800Y485556D01*
X739849Y485652D01*
X739895Y485750D01*
X739938Y485849D01*
X739977Y485950D01*
X740012Y486052D01*
X740044Y486155D01*
X740072Y486259D01*
X740097Y486364D01*
X740118Y486471D01*
X740135Y486577D01*
X740148Y486684D01*
X740157Y486792D01*
X740163Y486900D01*
X740165Y487008D01*
X739213Y484785D02*
X733815Y478435D01*
X740165Y478435D01*
X1051950Y508000D02*
X1051950Y519750D01*
X1051950Y508000D02*
X1051950Y496250D01*
X1005450Y496250D01*
X1005450Y508000D01*
X1005450Y519750D01*
X1051950Y519750D01*
X1005450Y508000D02*
X996200Y508000D01*
X1051950Y508000D02*
X1061200Y508000D01*
D11*
X1009950Y508000D03*
D10*
X974335Y526135D02*
X974335Y537565D01*
X977510Y537565D01*
X977621Y537563D01*
X977731Y537557D01*
X977842Y537548D01*
X977952Y537534D01*
X978061Y537517D01*
X978170Y537496D01*
X978278Y537471D01*
X978385Y537442D01*
X978491Y537410D01*
X978596Y537374D01*
X978699Y537334D01*
X978801Y537291D01*
X978902Y537244D01*
X979001Y537193D01*
X979098Y537140D01*
X979192Y537083D01*
X979285Y537022D01*
X979376Y536959D01*
X979465Y536892D01*
X979551Y536822D01*
X979634Y536749D01*
X979716Y536674D01*
X979794Y536596D01*
X979869Y536514D01*
X979942Y536431D01*
X980012Y536345D01*
X980079Y536256D01*
X980142Y536165D01*
X980203Y536072D01*
X980260Y535978D01*
X980313Y535881D01*
X980364Y535782D01*
X980411Y535681D01*
X980454Y535579D01*
X980494Y535476D01*
X980530Y535371D01*
X980562Y535265D01*
X980591Y535158D01*
X980616Y535050D01*
X980637Y534941D01*
X980654Y534832D01*
X980668Y534722D01*
X980677Y534611D01*
X980683Y534501D01*
X980685Y534390D01*
X980685Y529310D01*
X980683Y529199D01*
X980677Y529089D01*
X980668Y528978D01*
X980654Y528868D01*
X980637Y528759D01*
X980616Y528650D01*
X980591Y528542D01*
X980562Y528435D01*
X980530Y528329D01*
X980494Y528224D01*
X980454Y528121D01*
X980411Y528019D01*
X980364Y527918D01*
X980313Y527819D01*
X980260Y527723D01*
X980203Y527628D01*
X980142Y527535D01*
X980079Y527444D01*
X980012Y527355D01*
X979942Y527269D01*
X979869Y527186D01*
X979794Y527104D01*
X979716Y527026D01*
X979634Y526951D01*
X979551Y526878D01*
X979465Y526808D01*
X979376Y526741D01*
X979285Y526678D01*
X979192Y526617D01*
X979098Y526560D01*
X979001Y526507D01*
X978902Y526456D01*
X978801Y526409D01*
X978699Y526366D01*
X978596Y526326D01*
X978491Y526290D01*
X978385Y526258D01*
X978278Y526229D01*
X978170Y526204D01*
X978061Y526183D01*
X977952Y526166D01*
X977842Y526152D01*
X977731Y526143D01*
X977621Y526137D01*
X977510Y526135D01*
X974335Y526135D01*
X986146Y528675D02*
X988686Y537565D01*
X986146Y528675D02*
X992496Y528675D01*
X990591Y531215D02*
X990591Y526135D01*
D12*
X1231900Y844550D02*
X1250950Y844550D01*
X1238250Y852170D02*
X1238250Y836930D01*
X1250950Y844550D01*
X1257300Y844550D01*
X1250950Y844550D02*
X1238250Y852170D01*
X1238250Y858520D02*
X1245870Y866140D01*
X1252220Y862330D02*
X1244600Y854710D01*
X1244600Y862330D02*
X1242060Y864870D01*
X1244600Y862330D02*
X1245870Y866140D01*
X1242060Y864870D01*
X1248410Y861060D02*
X1252220Y862330D01*
X1248410Y861060D02*
X1250950Y858520D01*
X1252220Y862330D01*
X1249680Y861060D02*
X1250950Y859790D01*
X1244600Y863600D02*
X1243330Y864870D01*
X1250950Y852170D02*
X1250950Y836930D01*
X1219200Y815340D02*
X1219200Y866140D01*
X1219208Y866759D01*
X1219230Y867377D01*
X1219268Y867994D01*
X1219320Y868610D01*
X1219388Y869225D01*
X1219471Y869838D01*
X1219568Y870449D01*
X1219681Y871057D01*
X1219808Y871663D01*
X1219950Y872265D01*
X1220106Y872863D01*
X1220277Y873458D01*
X1220462Y874048D01*
X1220662Y874633D01*
X1220876Y875214D01*
X1221104Y875789D01*
X1221346Y876358D01*
X1221602Y876921D01*
X1221871Y877478D01*
X1222154Y878028D01*
X1222450Y878571D01*
X1222759Y879107D01*
X1223081Y879635D01*
X1223416Y880155D01*
X1223764Y880667D01*
X1224124Y881170D01*
X1224496Y881664D01*
X1224880Y882149D01*
X1225276Y882624D01*
X1225683Y883090D01*
X1226101Y883546D01*
X1226530Y883991D01*
X1226971Y884426D01*
X1227421Y884849D01*
X1227882Y885262D01*
X1228352Y885664D01*
X1228833Y886053D01*
X1229322Y886432D01*
X1229821Y886798D01*
X1230328Y887151D01*
X1230844Y887493D01*
X1231368Y887821D01*
X1231900Y888137D01*
X1232439Y888440D01*
X1232986Y888729D01*
X1233540Y889005D01*
X1234100Y889268D01*
X1234666Y889517D01*
X1235238Y889752D01*
X1235816Y889973D01*
X1236399Y890180D01*
X1236987Y890372D01*
X1237579Y890550D01*
X1238175Y890714D01*
X1238776Y890863D01*
X1239380Y890998D01*
X1239986Y891117D01*
X1240596Y891222D01*
X1241208Y891312D01*
X1241822Y891388D01*
X1242438Y891448D01*
X1243055Y891493D01*
X1243672Y891523D01*
X1244291Y891538D01*
X1244909Y891538D01*
X1245528Y891523D01*
X1246145Y891493D01*
X1246762Y891448D01*
X1247378Y891388D01*
X1247992Y891312D01*
X1248604Y891222D01*
X1249214Y891117D01*
X1249820Y890998D01*
X1250424Y890863D01*
X1251025Y890714D01*
X1251621Y890550D01*
X1252213Y890372D01*
X1252801Y890180D01*
X1253384Y889973D01*
X1253962Y889752D01*
X1254534Y889517D01*
X1255100Y889268D01*
X1255660Y889005D01*
X1256214Y888729D01*
X1256761Y888440D01*
X1257300Y888137D01*
X1257832Y887821D01*
X1258356Y887493D01*
X1258872Y887151D01*
X1259379Y886798D01*
X1259878Y886432D01*
X1260367Y886053D01*
X1260848Y885664D01*
X1261318Y885262D01*
X1261779Y884849D01*
X1262229Y884426D01*
X1262670Y883991D01*
X1263099Y883546D01*
X1263517Y883090D01*
X1263924Y882624D01*
X1264320Y882149D01*
X1264704Y881664D01*
X1265076Y881170D01*
X1265436Y880667D01*
X1265784Y880155D01*
X1266119Y879635D01*
X1266441Y879107D01*
X1266750Y878571D01*
X1267046Y878028D01*
X1267329Y877478D01*
X1267598Y876921D01*
X1267854Y876358D01*
X1268096Y875789D01*
X1268324Y875214D01*
X1268538Y874633D01*
X1268738Y874048D01*
X1268923Y873458D01*
X1269094Y872863D01*
X1269250Y872265D01*
X1269392Y871663D01*
X1269519Y871057D01*
X1269632Y870449D01*
X1269729Y869838D01*
X1269812Y869225D01*
X1269880Y868610D01*
X1269932Y867994D01*
X1269970Y867377D01*
X1269992Y866759D01*
X1270000Y866140D01*
X1270000Y815340D01*
X1219200Y815340D02*
X1206500Y815340D01*
X1282700Y815340D02*
X1282700Y800100D01*
X1206500Y800100D02*
X1206500Y815340D01*
X1270000Y815340D02*
X1282700Y815340D01*
X1257300Y815340D02*
X1257300Y844550D01*
X1231900Y844550D02*
X1231900Y815340D01*
X1206500Y739140D02*
X1277620Y739140D01*
X1231900Y815340D02*
X1219200Y815340D01*
X1231900Y815340D02*
X1257300Y815340D01*
X1270000Y815340D01*
D13*
X1277620Y800100D02*
X1282700Y800100D01*
D12*
X1282700Y739140D01*
D13*
X1277620Y739140D02*
X1277620Y800100D01*
D12*
X1277620Y739140D02*
X1282700Y739140D01*
D13*
X1206500Y800100D02*
X1201420Y800100D01*
D12*
X1206500Y800100D02*
X1206500Y739140D01*
D13*
X1201420Y739140D02*
X1201420Y800100D01*
X1201420Y739140D02*
X1206500Y739140D01*
D12*
X1263650Y800100D02*
X1263652Y800259D01*
X1263658Y800418D01*
X1263668Y800576D01*
X1263682Y800735D01*
X1263700Y800893D01*
X1263721Y801050D01*
X1263747Y801207D01*
X1263777Y801363D01*
X1263810Y801519D01*
X1263848Y801673D01*
X1263889Y801827D01*
X1263934Y801979D01*
X1263983Y802130D01*
X1264036Y802280D01*
X1264092Y802429D01*
X1264153Y802576D01*
X1264216Y802721D01*
X1264284Y802865D01*
X1264355Y803008D01*
X1264429Y803148D01*
X1264507Y803286D01*
X1264589Y803423D01*
X1264674Y803557D01*
X1264762Y803690D01*
X1264853Y803820D01*
X1264948Y803947D01*
X1265046Y804072D01*
X1265147Y804195D01*
X1265251Y804315D01*
X1265358Y804433D01*
X1265468Y804548D01*
X1265581Y804660D01*
X1265696Y804769D01*
X1265814Y804875D01*
X1265935Y804979D01*
X1266059Y805079D01*
X1266184Y805176D01*
X1266313Y805270D01*
X1266443Y805360D01*
X1266576Y805448D01*
X1266711Y805532D01*
X1266848Y805612D01*
X1266987Y805690D01*
X1267128Y805763D01*
X1267270Y805833D01*
X1267415Y805900D01*
X1267561Y805963D01*
X1267708Y806022D01*
X1267857Y806078D01*
X1268008Y806129D01*
X1268159Y806177D01*
X1268312Y806221D01*
X1268466Y806262D01*
X1268620Y806298D01*
X1268776Y806331D01*
X1268932Y806360D01*
X1269089Y806384D01*
X1269247Y806405D01*
X1269405Y806422D01*
X1269563Y806435D01*
X1269722Y806444D01*
X1269881Y806449D01*
X1270040Y806450D01*
X1270199Y806447D01*
X1270357Y806440D01*
X1270516Y806429D01*
X1270674Y806414D01*
X1270832Y806395D01*
X1270989Y806372D01*
X1271146Y806346D01*
X1271302Y806315D01*
X1271457Y806281D01*
X1271611Y806242D01*
X1271765Y806200D01*
X1271917Y806154D01*
X1272068Y806104D01*
X1272217Y806050D01*
X1272366Y805993D01*
X1272512Y805932D01*
X1272658Y805867D01*
X1272801Y805799D01*
X1272943Y805727D01*
X1273083Y805651D01*
X1273221Y805573D01*
X1273357Y805490D01*
X1273491Y805405D01*
X1273622Y805316D01*
X1273752Y805223D01*
X1273879Y805128D01*
X1274003Y805029D01*
X1274126Y804927D01*
X1274245Y804823D01*
X1274362Y804715D01*
X1274476Y804604D01*
X1274587Y804491D01*
X1274696Y804375D01*
X1274801Y804256D01*
X1274904Y804134D01*
X1275003Y804010D01*
X1275100Y803884D01*
X1275193Y803755D01*
X1275283Y803624D01*
X1275369Y803490D01*
X1275452Y803355D01*
X1275532Y803217D01*
X1275608Y803078D01*
X1275681Y802937D01*
X1275750Y802794D01*
X1275816Y802649D01*
X1275878Y802502D01*
X1275936Y802355D01*
X1275991Y802205D01*
X1276042Y802055D01*
X1276089Y801903D01*
X1276132Y801750D01*
X1276171Y801596D01*
X1276207Y801441D01*
X1276238Y801285D01*
X1276266Y801129D01*
X1276290Y800972D01*
X1276310Y800814D01*
X1276326Y800656D01*
X1276338Y800497D01*
X1276346Y800338D01*
X1276350Y800179D01*
X1276350Y800021D01*
X1276346Y799862D01*
X1276338Y799703D01*
X1276326Y799544D01*
X1276310Y799386D01*
X1276290Y799228D01*
X1276266Y799071D01*
X1276238Y798915D01*
X1276207Y798759D01*
X1276171Y798604D01*
X1276132Y798450D01*
X1276089Y798297D01*
X1276042Y798145D01*
X1275991Y797995D01*
X1275936Y797845D01*
X1275878Y797698D01*
X1275816Y797551D01*
X1275750Y797406D01*
X1275681Y797263D01*
X1275608Y797122D01*
X1275532Y796983D01*
X1275452Y796845D01*
X1275369Y796710D01*
X1275283Y796576D01*
X1275193Y796445D01*
X1275100Y796316D01*
X1275003Y796190D01*
X1274904Y796066D01*
X1274801Y795944D01*
X1274696Y795825D01*
X1274587Y795709D01*
X1274476Y795596D01*
X1274362Y795485D01*
X1274245Y795377D01*
X1274126Y795273D01*
X1274003Y795171D01*
X1273879Y795072D01*
X1273752Y794977D01*
X1273622Y794884D01*
X1273491Y794795D01*
X1273357Y794710D01*
X1273221Y794627D01*
X1273083Y794549D01*
X1272943Y794473D01*
X1272801Y794401D01*
X1272658Y794333D01*
X1272512Y794268D01*
X1272366Y794207D01*
X1272217Y794150D01*
X1272068Y794096D01*
X1271917Y794046D01*
X1271765Y794000D01*
X1271611Y793958D01*
X1271457Y793919D01*
X1271302Y793885D01*
X1271146Y793854D01*
X1270989Y793828D01*
X1270832Y793805D01*
X1270674Y793786D01*
X1270516Y793771D01*
X1270357Y793760D01*
X1270199Y793753D01*
X1270040Y793750D01*
X1269881Y793751D01*
X1269722Y793756D01*
X1269563Y793765D01*
X1269405Y793778D01*
X1269247Y793795D01*
X1269089Y793816D01*
X1268932Y793840D01*
X1268776Y793869D01*
X1268620Y793902D01*
X1268466Y793938D01*
X1268312Y793979D01*
X1268159Y794023D01*
X1268008Y794071D01*
X1267857Y794122D01*
X1267708Y794178D01*
X1267561Y794237D01*
X1267415Y794300D01*
X1267270Y794367D01*
X1267128Y794437D01*
X1266987Y794510D01*
X1266848Y794588D01*
X1266711Y794668D01*
X1266576Y794752D01*
X1266443Y794840D01*
X1266313Y794930D01*
X1266184Y795024D01*
X1266059Y795121D01*
X1265935Y795221D01*
X1265814Y795325D01*
X1265696Y795431D01*
X1265581Y795540D01*
X1265468Y795652D01*
X1265358Y795767D01*
X1265251Y795885D01*
X1265147Y796005D01*
X1265046Y796128D01*
X1264948Y796253D01*
X1264853Y796380D01*
X1264762Y796510D01*
X1264674Y796643D01*
X1264589Y796777D01*
X1264507Y796914D01*
X1264429Y797052D01*
X1264355Y797192D01*
X1264284Y797335D01*
X1264216Y797479D01*
X1264153Y797624D01*
X1264092Y797771D01*
X1264036Y797920D01*
X1263983Y798070D01*
X1263934Y798221D01*
X1263889Y798373D01*
X1263848Y798527D01*
X1263810Y798681D01*
X1263777Y798837D01*
X1263747Y798993D01*
X1263721Y799150D01*
X1263700Y799307D01*
X1263682Y799465D01*
X1263668Y799624D01*
X1263658Y799782D01*
X1263652Y799941D01*
X1263650Y800100D01*
X1212850Y800100D02*
X1212852Y800259D01*
X1212858Y800418D01*
X1212868Y800576D01*
X1212882Y800735D01*
X1212900Y800893D01*
X1212921Y801050D01*
X1212947Y801207D01*
X1212977Y801363D01*
X1213010Y801519D01*
X1213048Y801673D01*
X1213089Y801827D01*
X1213134Y801979D01*
X1213183Y802130D01*
X1213236Y802280D01*
X1213292Y802429D01*
X1213353Y802576D01*
X1213416Y802721D01*
X1213484Y802865D01*
X1213555Y803008D01*
X1213629Y803148D01*
X1213707Y803286D01*
X1213789Y803423D01*
X1213874Y803557D01*
X1213962Y803690D01*
X1214053Y803820D01*
X1214148Y803947D01*
X1214246Y804072D01*
X1214347Y804195D01*
X1214451Y804315D01*
X1214558Y804433D01*
X1214668Y804548D01*
X1214781Y804660D01*
X1214896Y804769D01*
X1215014Y804875D01*
X1215135Y804979D01*
X1215259Y805079D01*
X1215384Y805176D01*
X1215513Y805270D01*
X1215643Y805360D01*
X1215776Y805448D01*
X1215911Y805532D01*
X1216048Y805612D01*
X1216187Y805690D01*
X1216328Y805763D01*
X1216470Y805833D01*
X1216615Y805900D01*
X1216761Y805963D01*
X1216908Y806022D01*
X1217057Y806078D01*
X1217208Y806129D01*
X1217359Y806177D01*
X1217512Y806221D01*
X1217666Y806262D01*
X1217820Y806298D01*
X1217976Y806331D01*
X1218132Y806360D01*
X1218289Y806384D01*
X1218447Y806405D01*
X1218605Y806422D01*
X1218763Y806435D01*
X1218922Y806444D01*
X1219081Y806449D01*
X1219240Y806450D01*
X1219399Y806447D01*
X1219557Y806440D01*
X1219716Y806429D01*
X1219874Y806414D01*
X1220032Y806395D01*
X1220189Y806372D01*
X1220346Y806346D01*
X1220502Y806315D01*
X1220657Y806281D01*
X1220811Y806242D01*
X1220965Y806200D01*
X1221117Y806154D01*
X1221268Y806104D01*
X1221417Y806050D01*
X1221566Y805993D01*
X1221712Y805932D01*
X1221858Y805867D01*
X1222001Y805799D01*
X1222143Y805727D01*
X1222283Y805651D01*
X1222421Y805573D01*
X1222557Y805490D01*
X1222691Y805405D01*
X1222822Y805316D01*
X1222952Y805223D01*
X1223079Y805128D01*
X1223203Y805029D01*
X1223326Y804927D01*
X1223445Y804823D01*
X1223562Y804715D01*
X1223676Y804604D01*
X1223787Y804491D01*
X1223896Y804375D01*
X1224001Y804256D01*
X1224104Y804134D01*
X1224203Y804010D01*
X1224300Y803884D01*
X1224393Y803755D01*
X1224483Y803624D01*
X1224569Y803490D01*
X1224652Y803355D01*
X1224732Y803217D01*
X1224808Y803078D01*
X1224881Y802937D01*
X1224950Y802794D01*
X1225016Y802649D01*
X1225078Y802502D01*
X1225136Y802355D01*
X1225191Y802205D01*
X1225242Y802055D01*
X1225289Y801903D01*
X1225332Y801750D01*
X1225371Y801596D01*
X1225407Y801441D01*
X1225438Y801285D01*
X1225466Y801129D01*
X1225490Y800972D01*
X1225510Y800814D01*
X1225526Y800656D01*
X1225538Y800497D01*
X1225546Y800338D01*
X1225550Y800179D01*
X1225550Y800021D01*
X1225546Y799862D01*
X1225538Y799703D01*
X1225526Y799544D01*
X1225510Y799386D01*
X1225490Y799228D01*
X1225466Y799071D01*
X1225438Y798915D01*
X1225407Y798759D01*
X1225371Y798604D01*
X1225332Y798450D01*
X1225289Y798297D01*
X1225242Y798145D01*
X1225191Y797995D01*
X1225136Y797845D01*
X1225078Y797698D01*
X1225016Y797551D01*
X1224950Y797406D01*
X1224881Y797263D01*
X1224808Y797122D01*
X1224732Y796983D01*
X1224652Y796845D01*
X1224569Y796710D01*
X1224483Y796576D01*
X1224393Y796445D01*
X1224300Y796316D01*
X1224203Y796190D01*
X1224104Y796066D01*
X1224001Y795944D01*
X1223896Y795825D01*
X1223787Y795709D01*
X1223676Y795596D01*
X1223562Y795485D01*
X1223445Y795377D01*
X1223326Y795273D01*
X1223203Y795171D01*
X1223079Y795072D01*
X1222952Y794977D01*
X1222822Y794884D01*
X1222691Y794795D01*
X1222557Y794710D01*
X1222421Y794627D01*
X1222283Y794549D01*
X1222143Y794473D01*
X1222001Y794401D01*
X1221858Y794333D01*
X1221712Y794268D01*
X1221566Y794207D01*
X1221417Y794150D01*
X1221268Y794096D01*
X1221117Y794046D01*
X1220965Y794000D01*
X1220811Y793958D01*
X1220657Y793919D01*
X1220502Y793885D01*
X1220346Y793854D01*
X1220189Y793828D01*
X1220032Y793805D01*
X1219874Y793786D01*
X1219716Y793771D01*
X1219557Y793760D01*
X1219399Y793753D01*
X1219240Y793750D01*
X1219081Y793751D01*
X1218922Y793756D01*
X1218763Y793765D01*
X1218605Y793778D01*
X1218447Y793795D01*
X1218289Y793816D01*
X1218132Y793840D01*
X1217976Y793869D01*
X1217820Y793902D01*
X1217666Y793938D01*
X1217512Y793979D01*
X1217359Y794023D01*
X1217208Y794071D01*
X1217057Y794122D01*
X1216908Y794178D01*
X1216761Y794237D01*
X1216615Y794300D01*
X1216470Y794367D01*
X1216328Y794437D01*
X1216187Y794510D01*
X1216048Y794588D01*
X1215911Y794668D01*
X1215776Y794752D01*
X1215643Y794840D01*
X1215513Y794930D01*
X1215384Y795024D01*
X1215259Y795121D01*
X1215135Y795221D01*
X1215014Y795325D01*
X1214896Y795431D01*
X1214781Y795540D01*
X1214668Y795652D01*
X1214558Y795767D01*
X1214451Y795885D01*
X1214347Y796005D01*
X1214246Y796128D01*
X1214148Y796253D01*
X1214053Y796380D01*
X1213962Y796510D01*
X1213874Y796643D01*
X1213789Y796777D01*
X1213707Y796914D01*
X1213629Y797052D01*
X1213555Y797192D01*
X1213484Y797335D01*
X1213416Y797479D01*
X1213353Y797624D01*
X1213292Y797771D01*
X1213236Y797920D01*
X1213183Y798070D01*
X1213134Y798221D01*
X1213089Y798373D01*
X1213048Y798527D01*
X1213010Y798681D01*
X1212977Y798837D01*
X1212947Y798993D01*
X1212921Y799150D01*
X1212900Y799307D01*
X1212882Y799465D01*
X1212868Y799624D01*
X1212858Y799782D01*
X1212852Y799941D01*
X1212850Y800100D01*
D10*
X1202055Y734695D02*
X1202055Y723265D01*
X1207135Y723265D01*
X1212063Y723265D02*
X1212063Y734695D01*
X1215873Y728345D01*
X1219683Y734695D01*
X1219683Y723265D01*
X1225842Y723265D02*
X1225842Y734695D01*
X1229017Y734695D01*
X1229128Y734693D01*
X1229238Y734687D01*
X1229349Y734678D01*
X1229459Y734664D01*
X1229568Y734647D01*
X1229677Y734626D01*
X1229785Y734601D01*
X1229892Y734572D01*
X1229998Y734540D01*
X1230103Y734504D01*
X1230206Y734464D01*
X1230308Y734421D01*
X1230409Y734374D01*
X1230508Y734323D01*
X1230605Y734270D01*
X1230699Y734213D01*
X1230792Y734152D01*
X1230883Y734089D01*
X1230972Y734022D01*
X1231058Y733952D01*
X1231141Y733879D01*
X1231223Y733804D01*
X1231301Y733726D01*
X1231376Y733644D01*
X1231449Y733561D01*
X1231519Y733475D01*
X1231586Y733386D01*
X1231649Y733295D01*
X1231710Y733202D01*
X1231767Y733107D01*
X1231820Y733011D01*
X1231871Y732912D01*
X1231918Y732811D01*
X1231961Y732709D01*
X1232001Y732606D01*
X1232037Y732501D01*
X1232069Y732395D01*
X1232098Y732288D01*
X1232123Y732180D01*
X1232144Y732071D01*
X1232161Y731962D01*
X1232175Y731852D01*
X1232184Y731741D01*
X1232190Y731631D01*
X1232192Y731520D01*
X1232190Y731409D01*
X1232184Y731299D01*
X1232175Y731188D01*
X1232161Y731078D01*
X1232144Y730969D01*
X1232123Y730860D01*
X1232098Y730752D01*
X1232069Y730645D01*
X1232037Y730539D01*
X1232001Y730434D01*
X1231961Y730331D01*
X1231918Y730229D01*
X1231871Y730128D01*
X1231820Y730029D01*
X1231767Y729933D01*
X1231710Y729838D01*
X1231649Y729745D01*
X1231586Y729654D01*
X1231519Y729565D01*
X1231449Y729479D01*
X1231376Y729396D01*
X1231301Y729314D01*
X1231223Y729236D01*
X1231141Y729161D01*
X1231058Y729088D01*
X1230972Y729018D01*
X1230883Y728951D01*
X1230792Y728888D01*
X1230699Y728827D01*
X1230605Y728770D01*
X1230508Y728717D01*
X1230409Y728666D01*
X1230308Y728619D01*
X1230206Y728576D01*
X1230103Y728536D01*
X1229998Y728500D01*
X1229892Y728468D01*
X1229785Y728439D01*
X1229677Y728414D01*
X1229568Y728393D01*
X1229459Y728376D01*
X1229349Y728362D01*
X1229238Y728353D01*
X1229128Y728347D01*
X1229017Y728345D01*
X1225842Y728345D01*
X1236701Y732155D02*
X1239876Y734695D01*
X1239876Y723265D01*
X1236701Y723265D02*
X1243051Y723265D01*
D12*
X1091692Y572008D02*
X966724Y572008D01*
X966724Y871982D01*
X1091692Y871982D01*
X1091692Y572008D01*
X1003300Y584200D02*
X1003300Y609600D01*
X1016000Y609600D01*
X1054100Y609600D02*
X1054100Y584200D01*
X1041400Y584200D01*
X1054100Y749300D02*
X1016000Y749300D01*
X1016000Y774700D01*
X1016000Y850900D02*
X1054100Y850900D01*
X1016000Y850900D02*
X1016000Y825500D01*
X1003300Y800100D02*
X1041400Y800100D01*
X1054100Y787400D01*
X1016000Y774700D02*
X1003300Y762000D01*
X1028700Y762000D01*
X1016000Y774700D01*
X1016000Y825500D02*
X1003300Y838200D01*
X1028700Y838200D01*
X1016000Y825500D01*
X1016000Y609600D02*
X1041400Y584200D01*
X1003300Y584200D01*
X1016000Y609600D02*
X1054100Y609600D01*
D14*
X1099439Y572389D02*
X1115441Y572389D01*
X1099439Y572389D02*
X1099439Y576834D01*
X1099441Y576966D01*
X1099447Y577097D01*
X1099457Y577229D01*
X1099470Y577360D01*
X1099488Y577490D01*
X1099509Y577620D01*
X1099534Y577750D01*
X1099563Y577878D01*
X1099596Y578006D01*
X1099633Y578132D01*
X1099673Y578258D01*
X1099717Y578382D01*
X1099765Y578505D01*
X1099816Y578626D01*
X1099871Y578746D01*
X1099929Y578864D01*
X1099991Y578980D01*
X1100057Y579094D01*
X1100125Y579207D01*
X1100197Y579317D01*
X1100272Y579425D01*
X1100351Y579531D01*
X1100432Y579635D01*
X1100517Y579736D01*
X1100604Y579834D01*
X1100695Y579930D01*
X1100788Y580023D01*
X1100884Y580114D01*
X1100982Y580201D01*
X1101083Y580286D01*
X1101187Y580367D01*
X1101293Y580446D01*
X1101401Y580521D01*
X1101511Y580593D01*
X1101624Y580661D01*
X1101738Y580727D01*
X1101854Y580789D01*
X1101972Y580847D01*
X1102092Y580902D01*
X1102213Y580953D01*
X1102336Y581001D01*
X1102460Y581045D01*
X1102586Y581085D01*
X1102712Y581122D01*
X1102840Y581155D01*
X1102968Y581184D01*
X1103098Y581209D01*
X1103228Y581230D01*
X1103358Y581248D01*
X1103489Y581261D01*
X1103621Y581271D01*
X1103752Y581277D01*
X1103884Y581279D01*
X1104016Y581277D01*
X1104147Y581271D01*
X1104279Y581261D01*
X1104410Y581248D01*
X1104540Y581230D01*
X1104670Y581209D01*
X1104800Y581184D01*
X1104928Y581155D01*
X1105056Y581122D01*
X1105182Y581085D01*
X1105308Y581045D01*
X1105432Y581001D01*
X1105555Y580953D01*
X1105676Y580902D01*
X1105796Y580847D01*
X1105914Y580789D01*
X1106030Y580727D01*
X1106144Y580661D01*
X1106257Y580593D01*
X1106367Y580521D01*
X1106475Y580446D01*
X1106581Y580367D01*
X1106685Y580286D01*
X1106786Y580201D01*
X1106884Y580114D01*
X1106980Y580023D01*
X1107073Y579930D01*
X1107164Y579834D01*
X1107251Y579736D01*
X1107336Y579635D01*
X1107417Y579531D01*
X1107496Y579425D01*
X1107571Y579317D01*
X1107643Y579207D01*
X1107711Y579094D01*
X1107777Y578980D01*
X1107839Y578864D01*
X1107897Y578746D01*
X1107952Y578626D01*
X1108003Y578505D01*
X1108051Y578382D01*
X1108095Y578258D01*
X1108135Y578132D01*
X1108172Y578006D01*
X1108205Y577878D01*
X1108234Y577750D01*
X1108259Y577620D01*
X1108280Y577490D01*
X1108298Y577360D01*
X1108311Y577229D01*
X1108321Y577097D01*
X1108327Y576966D01*
X1108329Y576834D01*
X1108329Y572389D01*
X1108329Y577723D02*
X1115441Y581279D01*
X1115441Y588473D02*
X1115441Y595585D01*
X1115441Y588473D02*
X1099439Y588473D01*
X1099439Y595585D01*
X1106551Y593807D02*
X1106551Y588473D01*
X1099439Y602020D02*
X1115441Y602020D01*
X1115441Y609132D01*
X1102995Y615014D02*
X1099439Y619459D01*
X1115441Y619459D01*
X1115441Y615014D02*
X1115441Y623904D01*
D12*
X793750Y717550D02*
X787400Y723900D01*
X793750Y717550D02*
X793750Y704850D01*
X787400Y698500D01*
X774700Y698500D01*
X768350Y704850D01*
X768350Y717550D01*
X774700Y723900D01*
X793750Y749300D02*
X793750Y774700D01*
X793750Y749300D02*
X787400Y749300D01*
X774700Y749300D01*
X768350Y749300D01*
X787400Y749300D02*
X793750Y742950D01*
X793750Y730250D01*
X787400Y723900D01*
X774700Y723900D01*
X768350Y730250D01*
X768350Y742950D01*
X774700Y749300D01*
X768350Y774700D02*
X793750Y774700D01*
X768350Y774700D02*
X768350Y749300D01*
D13*
X802259Y752729D02*
X809371Y755100D01*
X802259Y757470D01*
X809371Y761544D02*
X809371Y763125D01*
X809371Y761544D02*
X809369Y761466D01*
X809363Y761389D01*
X809354Y761312D01*
X809341Y761236D01*
X809324Y761160D01*
X809303Y761085D01*
X809279Y761012D01*
X809251Y760939D01*
X809219Y760868D01*
X809184Y760799D01*
X809146Y760732D01*
X809105Y760666D01*
X809060Y760603D01*
X809012Y760542D01*
X808962Y760483D01*
X808908Y760427D01*
X808852Y760373D01*
X808793Y760323D01*
X808732Y760275D01*
X808669Y760230D01*
X808603Y760189D01*
X808536Y760151D01*
X808467Y760116D01*
X808396Y760084D01*
X808323Y760056D01*
X808250Y760032D01*
X808175Y760011D01*
X808099Y759994D01*
X808023Y759981D01*
X807946Y759972D01*
X807869Y759966D01*
X807791Y759964D01*
X803839Y759964D01*
X803839Y759963D02*
X803761Y759965D01*
X803684Y759971D01*
X803607Y759980D01*
X803531Y759993D01*
X803455Y760010D01*
X803380Y760031D01*
X803306Y760055D01*
X803234Y760083D01*
X803163Y760115D01*
X803094Y760150D01*
X803026Y760188D01*
X802961Y760229D01*
X802897Y760274D01*
X802836Y760322D01*
X802777Y760373D01*
X802721Y760426D01*
X802668Y760482D01*
X802617Y760541D01*
X802569Y760602D01*
X802524Y760666D01*
X802483Y760731D01*
X802445Y760799D01*
X802410Y760868D01*
X802378Y760939D01*
X802350Y761011D01*
X802326Y761085D01*
X802305Y761160D01*
X802288Y761236D01*
X802275Y761312D01*
X802266Y761389D01*
X802260Y761466D01*
X802258Y761544D01*
X802259Y761544D02*
X802259Y763125D01*
X809371Y767259D02*
X809371Y768840D01*
X809371Y767259D02*
X809369Y767181D01*
X809363Y767104D01*
X809354Y767027D01*
X809341Y766951D01*
X809324Y766875D01*
X809303Y766800D01*
X809279Y766727D01*
X809251Y766654D01*
X809219Y766583D01*
X809184Y766514D01*
X809146Y766447D01*
X809105Y766381D01*
X809060Y766318D01*
X809012Y766257D01*
X808962Y766198D01*
X808908Y766142D01*
X808852Y766088D01*
X808793Y766038D01*
X808732Y765990D01*
X808669Y765945D01*
X808603Y765904D01*
X808536Y765866D01*
X808467Y765831D01*
X808396Y765799D01*
X808323Y765771D01*
X808250Y765747D01*
X808175Y765726D01*
X808099Y765709D01*
X808023Y765696D01*
X807946Y765687D01*
X807869Y765681D01*
X807791Y765679D01*
X803839Y765679D01*
X803839Y765678D02*
X803761Y765680D01*
X803684Y765686D01*
X803607Y765695D01*
X803531Y765708D01*
X803455Y765725D01*
X803380Y765746D01*
X803306Y765770D01*
X803234Y765798D01*
X803163Y765830D01*
X803094Y765865D01*
X803026Y765903D01*
X802961Y765944D01*
X802897Y765989D01*
X802836Y766037D01*
X802777Y766088D01*
X802721Y766141D01*
X802668Y766197D01*
X802617Y766256D01*
X802569Y766317D01*
X802524Y766381D01*
X802483Y766446D01*
X802445Y766514D01*
X802410Y766583D01*
X802378Y766654D01*
X802350Y766726D01*
X802326Y766800D01*
X802305Y766875D01*
X802288Y766951D01*
X802275Y767027D01*
X802266Y767104D01*
X802260Y767181D01*
X802258Y767259D01*
X802259Y767259D02*
X802259Y768840D01*
X804235Y727329D02*
X807395Y727329D01*
X804235Y727329D02*
X804148Y727331D01*
X804060Y727337D01*
X803973Y727346D01*
X803887Y727360D01*
X803801Y727377D01*
X803717Y727398D01*
X803633Y727423D01*
X803550Y727452D01*
X803469Y727484D01*
X803389Y727519D01*
X803311Y727558D01*
X803234Y727601D01*
X803160Y727647D01*
X803088Y727696D01*
X803018Y727748D01*
X802950Y727804D01*
X802885Y727862D01*
X802822Y727923D01*
X802763Y727987D01*
X802706Y728054D01*
X802652Y728122D01*
X802601Y728194D01*
X802554Y728267D01*
X802509Y728342D01*
X802468Y728420D01*
X802431Y728499D01*
X802397Y728579D01*
X802367Y728661D01*
X802340Y728744D01*
X802317Y728829D01*
X802298Y728914D01*
X802283Y729000D01*
X802271Y729087D01*
X802263Y729174D01*
X802259Y729261D01*
X802259Y729349D01*
X802263Y729436D01*
X802271Y729523D01*
X802283Y729610D01*
X802298Y729696D01*
X802317Y729781D01*
X802340Y729866D01*
X802367Y729949D01*
X802397Y730031D01*
X802431Y730111D01*
X802468Y730190D01*
X802509Y730268D01*
X802554Y730343D01*
X802601Y730416D01*
X802652Y730488D01*
X802706Y730556D01*
X802763Y730623D01*
X802822Y730687D01*
X802885Y730748D01*
X802950Y730806D01*
X803018Y730862D01*
X803088Y730914D01*
X803160Y730963D01*
X803234Y731009D01*
X803311Y731052D01*
X803389Y731091D01*
X803469Y731126D01*
X803550Y731158D01*
X803633Y731187D01*
X803717Y731212D01*
X803801Y731233D01*
X803887Y731250D01*
X803973Y731264D01*
X804060Y731273D01*
X804148Y731279D01*
X804235Y731281D01*
X804235Y731280D02*
X807395Y731280D01*
X807395Y731281D02*
X807482Y731279D01*
X807570Y731273D01*
X807657Y731264D01*
X807743Y731250D01*
X807829Y731233D01*
X807913Y731212D01*
X807997Y731187D01*
X808080Y731158D01*
X808161Y731126D01*
X808241Y731091D01*
X808319Y731052D01*
X808396Y731009D01*
X808470Y730963D01*
X808542Y730914D01*
X808612Y730862D01*
X808680Y730806D01*
X808745Y730748D01*
X808808Y730687D01*
X808867Y730623D01*
X808924Y730556D01*
X808978Y730488D01*
X809029Y730416D01*
X809076Y730343D01*
X809121Y730268D01*
X809162Y730190D01*
X809199Y730111D01*
X809233Y730031D01*
X809263Y729949D01*
X809290Y729866D01*
X809313Y729781D01*
X809332Y729696D01*
X809347Y729610D01*
X809359Y729523D01*
X809367Y729436D01*
X809371Y729349D01*
X809371Y729261D01*
X809367Y729174D01*
X809359Y729087D01*
X809347Y729000D01*
X809332Y728914D01*
X809313Y728829D01*
X809290Y728744D01*
X809263Y728661D01*
X809233Y728579D01*
X809199Y728499D01*
X809162Y728420D01*
X809121Y728342D01*
X809076Y728267D01*
X809029Y728194D01*
X808978Y728122D01*
X808924Y728054D01*
X808867Y727987D01*
X808808Y727923D01*
X808745Y727862D01*
X808680Y727804D01*
X808612Y727748D01*
X808542Y727696D01*
X808470Y727647D01*
X808396Y727601D01*
X808319Y727558D01*
X808241Y727519D01*
X808161Y727484D01*
X808080Y727452D01*
X807997Y727423D01*
X807913Y727398D01*
X807829Y727377D01*
X807743Y727360D01*
X807657Y727346D01*
X807570Y727337D01*
X807482Y727331D01*
X807395Y727329D01*
X807395Y734416D02*
X802259Y734416D01*
X807395Y734415D02*
X807482Y734417D01*
X807570Y734423D01*
X807657Y734432D01*
X807743Y734446D01*
X807829Y734463D01*
X807913Y734484D01*
X807997Y734509D01*
X808080Y734538D01*
X808161Y734570D01*
X808241Y734605D01*
X808319Y734644D01*
X808396Y734687D01*
X808470Y734733D01*
X808542Y734782D01*
X808612Y734834D01*
X808680Y734890D01*
X808745Y734948D01*
X808808Y735009D01*
X808867Y735073D01*
X808924Y735140D01*
X808978Y735208D01*
X809029Y735280D01*
X809076Y735353D01*
X809121Y735428D01*
X809162Y735506D01*
X809199Y735585D01*
X809233Y735665D01*
X809263Y735747D01*
X809290Y735830D01*
X809313Y735915D01*
X809332Y736000D01*
X809347Y736086D01*
X809359Y736173D01*
X809367Y736260D01*
X809371Y736347D01*
X809371Y736435D01*
X809367Y736522D01*
X809359Y736609D01*
X809347Y736696D01*
X809332Y736782D01*
X809313Y736867D01*
X809290Y736952D01*
X809263Y737035D01*
X809233Y737117D01*
X809199Y737197D01*
X809162Y737276D01*
X809121Y737354D01*
X809076Y737429D01*
X809029Y737502D01*
X808978Y737574D01*
X808924Y737642D01*
X808867Y737709D01*
X808808Y737773D01*
X808745Y737834D01*
X808680Y737892D01*
X808612Y737948D01*
X808542Y738000D01*
X808470Y738049D01*
X808396Y738095D01*
X808319Y738138D01*
X808241Y738177D01*
X808161Y738212D01*
X808080Y738244D01*
X807997Y738273D01*
X807913Y738298D01*
X807829Y738319D01*
X807743Y738336D01*
X807657Y738350D01*
X807570Y738359D01*
X807482Y738365D01*
X807395Y738367D01*
X802259Y738367D01*
X802259Y743020D02*
X809371Y743020D01*
X802259Y741045D02*
X802259Y744996D01*
X805420Y705880D02*
X805420Y704695D01*
X805420Y705880D02*
X809371Y705880D01*
X809371Y703509D01*
X809369Y703431D01*
X809363Y703354D01*
X809354Y703277D01*
X809341Y703201D01*
X809324Y703125D01*
X809303Y703050D01*
X809279Y702977D01*
X809251Y702904D01*
X809219Y702833D01*
X809184Y702764D01*
X809146Y702697D01*
X809105Y702631D01*
X809060Y702568D01*
X809012Y702507D01*
X808962Y702448D01*
X808908Y702392D01*
X808852Y702338D01*
X808793Y702288D01*
X808732Y702240D01*
X808669Y702195D01*
X808603Y702154D01*
X808536Y702116D01*
X808467Y702081D01*
X808396Y702049D01*
X808323Y702021D01*
X808250Y701997D01*
X808175Y701976D01*
X808099Y701959D01*
X808023Y701946D01*
X807946Y701937D01*
X807869Y701931D01*
X807791Y701929D01*
X803839Y701929D01*
X803761Y701931D01*
X803684Y701937D01*
X803607Y701946D01*
X803531Y701959D01*
X803455Y701976D01*
X803380Y701997D01*
X803306Y702021D01*
X803234Y702049D01*
X803163Y702081D01*
X803094Y702116D01*
X803026Y702154D01*
X802961Y702195D01*
X802897Y702240D01*
X802836Y702288D01*
X802777Y702339D01*
X802721Y702392D01*
X802668Y702448D01*
X802617Y702507D01*
X802569Y702568D01*
X802524Y702632D01*
X802483Y702697D01*
X802445Y702765D01*
X802410Y702834D01*
X802378Y702905D01*
X802350Y702977D01*
X802326Y703051D01*
X802305Y703126D01*
X802288Y703202D01*
X802275Y703278D01*
X802266Y703355D01*
X802260Y703432D01*
X802258Y703510D01*
X802259Y703509D02*
X802259Y705880D01*
X802259Y709244D02*
X809371Y709244D01*
X809371Y713195D02*
X802259Y709244D01*
X802259Y713195D02*
X809371Y713195D01*
X809371Y716559D02*
X802259Y716559D01*
X802259Y718535D01*
X802261Y718621D01*
X802267Y718707D01*
X802276Y718793D01*
X802289Y718878D01*
X802306Y718963D01*
X802326Y719046D01*
X802350Y719129D01*
X802378Y719211D01*
X802409Y719291D01*
X802444Y719370D01*
X802482Y719447D01*
X802524Y719523D01*
X802568Y719597D01*
X802616Y719668D01*
X802667Y719738D01*
X802721Y719805D01*
X802778Y719870D01*
X802838Y719932D01*
X802900Y719992D01*
X802965Y720049D01*
X803032Y720103D01*
X803102Y720154D01*
X803173Y720202D01*
X803247Y720246D01*
X803323Y720288D01*
X803400Y720326D01*
X803479Y720361D01*
X803559Y720392D01*
X803641Y720420D01*
X803724Y720444D01*
X803807Y720464D01*
X803892Y720481D01*
X803977Y720494D01*
X804063Y720503D01*
X804149Y720509D01*
X804235Y720511D01*
X804235Y720510D02*
X807395Y720510D01*
X807395Y720511D02*
X807481Y720509D01*
X807567Y720503D01*
X807653Y720494D01*
X807738Y720481D01*
X807823Y720464D01*
X807906Y720444D01*
X807989Y720420D01*
X808071Y720392D01*
X808151Y720361D01*
X808230Y720326D01*
X808307Y720288D01*
X808383Y720246D01*
X808457Y720202D01*
X808528Y720154D01*
X808598Y720103D01*
X808665Y720049D01*
X808730Y719992D01*
X808792Y719932D01*
X808852Y719870D01*
X808909Y719805D01*
X808963Y719738D01*
X809014Y719668D01*
X809062Y719597D01*
X809106Y719523D01*
X809148Y719447D01*
X809186Y719370D01*
X809221Y719291D01*
X809252Y719211D01*
X809280Y719129D01*
X809304Y719046D01*
X809324Y718963D01*
X809341Y718878D01*
X809354Y718793D01*
X809363Y718707D01*
X809369Y718621D01*
X809371Y718535D01*
X809371Y716559D01*
D10*
X817753Y804335D02*
X817751Y804435D01*
X817745Y804534D01*
X817735Y804634D01*
X817722Y804732D01*
X817704Y804831D01*
X817683Y804928D01*
X817658Y805024D01*
X817629Y805120D01*
X817596Y805214D01*
X817560Y805307D01*
X817520Y805398D01*
X817476Y805488D01*
X817429Y805576D01*
X817379Y805662D01*
X817325Y805746D01*
X817268Y805828D01*
X817208Y805907D01*
X817144Y805985D01*
X817078Y806059D01*
X817009Y806131D01*
X816937Y806200D01*
X816863Y806266D01*
X816785Y806330D01*
X816706Y806390D01*
X816624Y806447D01*
X816540Y806501D01*
X816454Y806551D01*
X816366Y806598D01*
X816276Y806642D01*
X816185Y806682D01*
X816092Y806718D01*
X815998Y806751D01*
X815902Y806780D01*
X815806Y806805D01*
X815709Y806826D01*
X815610Y806844D01*
X815512Y806857D01*
X815412Y806867D01*
X815313Y806873D01*
X815213Y806875D01*
X817753Y804335D02*
X817751Y804194D01*
X817746Y804053D01*
X817736Y803912D01*
X817723Y803771D01*
X817707Y803631D01*
X817686Y803491D01*
X817662Y803352D01*
X817634Y803213D01*
X817603Y803076D01*
X817568Y802939D01*
X817530Y802803D01*
X817488Y802668D01*
X817442Y802535D01*
X817393Y802402D01*
X817340Y802271D01*
X817284Y802142D01*
X817225Y802013D01*
X817162Y801887D01*
X817096Y801762D01*
X817027Y801639D01*
X816954Y801518D01*
X816878Y801399D01*
X816799Y801281D01*
X816718Y801166D01*
X816633Y801054D01*
X816545Y800943D01*
X816454Y800835D01*
X816361Y800729D01*
X816264Y800626D01*
X816165Y800525D01*
X808863Y800843D02*
X808763Y800845D01*
X808664Y800851D01*
X808564Y800861D01*
X808466Y800874D01*
X808367Y800892D01*
X808270Y800913D01*
X808174Y800938D01*
X808078Y800967D01*
X807984Y801000D01*
X807891Y801036D01*
X807800Y801076D01*
X807710Y801120D01*
X807622Y801167D01*
X807536Y801217D01*
X807452Y801271D01*
X807370Y801328D01*
X807291Y801388D01*
X807213Y801452D01*
X807139Y801518D01*
X807067Y801587D01*
X806998Y801659D01*
X806932Y801733D01*
X806868Y801811D01*
X806808Y801890D01*
X806751Y801972D01*
X806697Y802056D01*
X806647Y802142D01*
X806600Y802230D01*
X806556Y802320D01*
X806516Y802411D01*
X806480Y802504D01*
X806447Y802598D01*
X806418Y802694D01*
X806393Y802790D01*
X806372Y802887D01*
X806354Y802986D01*
X806341Y803084D01*
X806331Y803184D01*
X806325Y803283D01*
X806323Y803383D01*
X806325Y803516D01*
X806330Y803649D01*
X806340Y803782D01*
X806353Y803915D01*
X806370Y804047D01*
X806390Y804179D01*
X806414Y804310D01*
X806442Y804440D01*
X806473Y804570D01*
X806508Y804698D01*
X806547Y804826D01*
X806589Y804952D01*
X806635Y805077D01*
X806684Y805201D01*
X806736Y805324D01*
X806792Y805445D01*
X806852Y805564D01*
X806914Y805682D01*
X806980Y805797D01*
X807049Y805911D01*
X807122Y806023D01*
X807197Y806133D01*
X807276Y806241D01*
X811086Y802112D02*
X811034Y802028D01*
X810979Y801945D01*
X810920Y801865D01*
X810859Y801787D01*
X810795Y801712D01*
X810727Y801639D01*
X810657Y801568D01*
X810585Y801501D01*
X810510Y801436D01*
X810432Y801374D01*
X810352Y801315D01*
X810270Y801259D01*
X810186Y801207D01*
X810100Y801158D01*
X810012Y801112D01*
X809922Y801069D01*
X809831Y801030D01*
X809738Y800995D01*
X809644Y800963D01*
X809549Y800935D01*
X809453Y800910D01*
X809356Y800890D01*
X809258Y800872D01*
X809160Y800859D01*
X809061Y800850D01*
X808962Y800844D01*
X808863Y800842D01*
X812990Y805606D02*
X813042Y805690D01*
X813097Y805773D01*
X813156Y805853D01*
X813217Y805931D01*
X813281Y806006D01*
X813349Y806079D01*
X813419Y806150D01*
X813491Y806217D01*
X813566Y806282D01*
X813644Y806344D01*
X813724Y806403D01*
X813806Y806459D01*
X813890Y806511D01*
X813976Y806560D01*
X814064Y806606D01*
X814154Y806649D01*
X814245Y806688D01*
X814338Y806723D01*
X814432Y806755D01*
X814527Y806783D01*
X814623Y806808D01*
X814720Y806828D01*
X814818Y806846D01*
X814916Y806859D01*
X815015Y806868D01*
X815114Y806874D01*
X815213Y806876D01*
X812991Y805605D02*
X811086Y802113D01*
X817753Y811981D02*
X817753Y817061D01*
X817753Y811981D02*
X806323Y811981D01*
X806323Y817061D01*
X811403Y815791D02*
X811403Y811981D01*
X806323Y821861D02*
X817753Y821861D01*
X817753Y828211D02*
X806323Y821861D01*
X806323Y828211D02*
X817753Y828211D01*
X817753Y837101D02*
X817751Y837201D01*
X817745Y837300D01*
X817735Y837400D01*
X817722Y837498D01*
X817704Y837597D01*
X817683Y837694D01*
X817658Y837790D01*
X817629Y837886D01*
X817596Y837980D01*
X817560Y838073D01*
X817520Y838164D01*
X817476Y838254D01*
X817429Y838342D01*
X817379Y838428D01*
X817325Y838512D01*
X817268Y838594D01*
X817208Y838673D01*
X817144Y838751D01*
X817078Y838825D01*
X817009Y838897D01*
X816937Y838966D01*
X816863Y839032D01*
X816785Y839096D01*
X816706Y839156D01*
X816624Y839213D01*
X816540Y839267D01*
X816454Y839317D01*
X816366Y839364D01*
X816276Y839408D01*
X816185Y839448D01*
X816092Y839484D01*
X815998Y839517D01*
X815902Y839546D01*
X815806Y839571D01*
X815709Y839592D01*
X815610Y839610D01*
X815512Y839623D01*
X815412Y839633D01*
X815313Y839639D01*
X815213Y839641D01*
X817753Y837101D02*
X817751Y836960D01*
X817746Y836819D01*
X817736Y836678D01*
X817723Y836537D01*
X817707Y836397D01*
X817686Y836257D01*
X817662Y836118D01*
X817634Y835979D01*
X817603Y835842D01*
X817568Y835705D01*
X817530Y835569D01*
X817488Y835434D01*
X817442Y835301D01*
X817393Y835168D01*
X817340Y835037D01*
X817284Y834908D01*
X817225Y834779D01*
X817162Y834653D01*
X817096Y834528D01*
X817027Y834405D01*
X816954Y834284D01*
X816878Y834165D01*
X816799Y834047D01*
X816718Y833932D01*
X816633Y833820D01*
X816545Y833709D01*
X816454Y833601D01*
X816361Y833495D01*
X816264Y833392D01*
X816165Y833291D01*
X808863Y833609D02*
X808763Y833611D01*
X808664Y833617D01*
X808564Y833627D01*
X808466Y833640D01*
X808367Y833658D01*
X808270Y833679D01*
X808174Y833704D01*
X808078Y833733D01*
X807984Y833766D01*
X807891Y833802D01*
X807800Y833842D01*
X807710Y833886D01*
X807622Y833933D01*
X807536Y833983D01*
X807452Y834037D01*
X807370Y834094D01*
X807291Y834154D01*
X807213Y834218D01*
X807139Y834284D01*
X807067Y834353D01*
X806998Y834425D01*
X806932Y834499D01*
X806868Y834577D01*
X806808Y834656D01*
X806751Y834738D01*
X806697Y834822D01*
X806647Y834908D01*
X806600Y834996D01*
X806556Y835086D01*
X806516Y835177D01*
X806480Y835270D01*
X806447Y835364D01*
X806418Y835460D01*
X806393Y835556D01*
X806372Y835653D01*
X806354Y835752D01*
X806341Y835850D01*
X806331Y835950D01*
X806325Y836049D01*
X806323Y836149D01*
X806325Y836282D01*
X806330Y836415D01*
X806340Y836548D01*
X806353Y836681D01*
X806370Y836813D01*
X806390Y836945D01*
X806414Y837076D01*
X806442Y837206D01*
X806473Y837336D01*
X806508Y837464D01*
X806547Y837592D01*
X806589Y837718D01*
X806635Y837843D01*
X806684Y837967D01*
X806736Y838090D01*
X806792Y838211D01*
X806852Y838330D01*
X806914Y838448D01*
X806980Y838563D01*
X807049Y838677D01*
X807122Y838789D01*
X807197Y838899D01*
X807276Y839007D01*
X811086Y834878D02*
X811034Y834794D01*
X810979Y834711D01*
X810920Y834631D01*
X810859Y834553D01*
X810795Y834478D01*
X810727Y834405D01*
X810657Y834334D01*
X810585Y834267D01*
X810510Y834202D01*
X810432Y834140D01*
X810352Y834081D01*
X810270Y834025D01*
X810186Y833973D01*
X810100Y833924D01*
X810012Y833878D01*
X809922Y833835D01*
X809831Y833796D01*
X809738Y833761D01*
X809644Y833729D01*
X809549Y833701D01*
X809453Y833676D01*
X809356Y833656D01*
X809258Y833638D01*
X809160Y833625D01*
X809061Y833616D01*
X808962Y833610D01*
X808863Y833608D01*
X812990Y838372D02*
X813042Y838456D01*
X813097Y838539D01*
X813156Y838619D01*
X813217Y838697D01*
X813281Y838772D01*
X813349Y838845D01*
X813419Y838916D01*
X813491Y838983D01*
X813566Y839048D01*
X813644Y839110D01*
X813724Y839169D01*
X813806Y839225D01*
X813890Y839277D01*
X813976Y839326D01*
X814064Y839372D01*
X814154Y839415D01*
X814245Y839454D01*
X814338Y839489D01*
X814432Y839521D01*
X814527Y839549D01*
X814623Y839574D01*
X814720Y839594D01*
X814818Y839612D01*
X814916Y839625D01*
X815015Y839634D01*
X815114Y839640D01*
X815213Y839642D01*
X812991Y838371D02*
X811086Y834879D01*
X809498Y844340D02*
X814578Y844340D01*
X809498Y844340D02*
X809387Y844342D01*
X809277Y844348D01*
X809166Y844357D01*
X809056Y844371D01*
X808947Y844388D01*
X808838Y844409D01*
X808730Y844434D01*
X808623Y844463D01*
X808517Y844495D01*
X808412Y844531D01*
X808309Y844571D01*
X808207Y844614D01*
X808106Y844661D01*
X808007Y844712D01*
X807911Y844765D01*
X807816Y844822D01*
X807723Y844883D01*
X807632Y844946D01*
X807543Y845013D01*
X807457Y845083D01*
X807374Y845156D01*
X807292Y845231D01*
X807214Y845309D01*
X807139Y845391D01*
X807066Y845474D01*
X806996Y845560D01*
X806929Y845649D01*
X806866Y845740D01*
X806805Y845833D01*
X806748Y845928D01*
X806695Y846024D01*
X806644Y846123D01*
X806597Y846224D01*
X806554Y846326D01*
X806514Y846429D01*
X806478Y846534D01*
X806446Y846640D01*
X806417Y846747D01*
X806392Y846855D01*
X806371Y846964D01*
X806354Y847073D01*
X806340Y847183D01*
X806331Y847294D01*
X806325Y847404D01*
X806323Y847515D01*
X806325Y847626D01*
X806331Y847736D01*
X806340Y847847D01*
X806354Y847957D01*
X806371Y848066D01*
X806392Y848175D01*
X806417Y848283D01*
X806446Y848390D01*
X806478Y848496D01*
X806514Y848601D01*
X806554Y848704D01*
X806597Y848806D01*
X806644Y848907D01*
X806695Y849006D01*
X806748Y849103D01*
X806805Y849197D01*
X806866Y849290D01*
X806929Y849381D01*
X806996Y849470D01*
X807066Y849556D01*
X807139Y849639D01*
X807214Y849721D01*
X807292Y849799D01*
X807374Y849874D01*
X807457Y849947D01*
X807543Y850017D01*
X807632Y850084D01*
X807723Y850147D01*
X807816Y850208D01*
X807911Y850265D01*
X808007Y850318D01*
X808106Y850369D01*
X808207Y850416D01*
X808309Y850459D01*
X808412Y850499D01*
X808517Y850535D01*
X808623Y850567D01*
X808730Y850596D01*
X808838Y850621D01*
X808947Y850642D01*
X809056Y850659D01*
X809166Y850673D01*
X809277Y850682D01*
X809387Y850688D01*
X809498Y850690D01*
X814578Y850690D01*
X814689Y850688D01*
X814799Y850682D01*
X814910Y850673D01*
X815020Y850659D01*
X815129Y850642D01*
X815238Y850621D01*
X815346Y850596D01*
X815453Y850567D01*
X815559Y850535D01*
X815664Y850499D01*
X815767Y850459D01*
X815869Y850416D01*
X815970Y850369D01*
X816069Y850318D01*
X816166Y850265D01*
X816260Y850208D01*
X816353Y850147D01*
X816444Y850084D01*
X816533Y850017D01*
X816619Y849947D01*
X816702Y849874D01*
X816784Y849799D01*
X816862Y849721D01*
X816937Y849639D01*
X817010Y849556D01*
X817080Y849470D01*
X817147Y849381D01*
X817210Y849290D01*
X817271Y849197D01*
X817328Y849102D01*
X817381Y849006D01*
X817432Y848907D01*
X817479Y848806D01*
X817522Y848704D01*
X817562Y848601D01*
X817598Y848496D01*
X817630Y848390D01*
X817659Y848283D01*
X817684Y848175D01*
X817705Y848066D01*
X817722Y847957D01*
X817736Y847847D01*
X817745Y847736D01*
X817751Y847626D01*
X817753Y847515D01*
X817751Y847404D01*
X817745Y847294D01*
X817736Y847183D01*
X817722Y847073D01*
X817705Y846964D01*
X817684Y846855D01*
X817659Y846747D01*
X817630Y846640D01*
X817598Y846534D01*
X817562Y846429D01*
X817522Y846326D01*
X817479Y846224D01*
X817432Y846123D01*
X817381Y846024D01*
X817328Y845928D01*
X817271Y845833D01*
X817210Y845740D01*
X817147Y845649D01*
X817080Y845560D01*
X817010Y845474D01*
X816937Y845391D01*
X816862Y845309D01*
X816784Y845231D01*
X816702Y845156D01*
X816619Y845083D01*
X816533Y845013D01*
X816444Y844946D01*
X816353Y844883D01*
X816260Y844822D01*
X816166Y844765D01*
X816069Y844712D01*
X815970Y844661D01*
X815869Y844614D01*
X815767Y844571D01*
X815664Y844531D01*
X815559Y844495D01*
X815453Y844463D01*
X815346Y844434D01*
X815238Y844409D01*
X815129Y844388D01*
X815020Y844371D01*
X814910Y844357D01*
X814799Y844348D01*
X814689Y844342D01*
X814578Y844340D01*
X817753Y856234D02*
X806323Y856234D01*
X806323Y859409D01*
X806325Y859520D01*
X806331Y859630D01*
X806340Y859741D01*
X806354Y859851D01*
X806371Y859960D01*
X806392Y860069D01*
X806417Y860177D01*
X806446Y860284D01*
X806478Y860390D01*
X806514Y860495D01*
X806554Y860598D01*
X806597Y860700D01*
X806644Y860801D01*
X806695Y860900D01*
X806748Y860997D01*
X806805Y861091D01*
X806866Y861184D01*
X806929Y861275D01*
X806996Y861364D01*
X807066Y861450D01*
X807139Y861533D01*
X807214Y861615D01*
X807292Y861693D01*
X807374Y861768D01*
X807457Y861841D01*
X807543Y861911D01*
X807632Y861978D01*
X807723Y862041D01*
X807816Y862102D01*
X807911Y862159D01*
X808007Y862212D01*
X808106Y862263D01*
X808207Y862310D01*
X808309Y862353D01*
X808412Y862393D01*
X808517Y862429D01*
X808623Y862461D01*
X808730Y862490D01*
X808838Y862515D01*
X808947Y862536D01*
X809056Y862553D01*
X809166Y862567D01*
X809277Y862576D01*
X809387Y862582D01*
X809498Y862584D01*
X809609Y862582D01*
X809719Y862576D01*
X809830Y862567D01*
X809940Y862553D01*
X810049Y862536D01*
X810158Y862515D01*
X810266Y862490D01*
X810373Y862461D01*
X810479Y862429D01*
X810584Y862393D01*
X810687Y862353D01*
X810789Y862310D01*
X810890Y862263D01*
X810989Y862212D01*
X811086Y862159D01*
X811180Y862102D01*
X811273Y862041D01*
X811364Y861978D01*
X811453Y861911D01*
X811539Y861841D01*
X811622Y861768D01*
X811704Y861693D01*
X811782Y861615D01*
X811857Y861533D01*
X811930Y861450D01*
X812000Y861364D01*
X812067Y861275D01*
X812130Y861184D01*
X812191Y861091D01*
X812248Y860997D01*
X812301Y860900D01*
X812352Y860801D01*
X812399Y860700D01*
X812442Y860598D01*
X812482Y860495D01*
X812518Y860390D01*
X812550Y860284D01*
X812579Y860177D01*
X812604Y860069D01*
X812625Y859960D01*
X812642Y859851D01*
X812656Y859741D01*
X812665Y859630D01*
X812671Y859520D01*
X812673Y859409D01*
X812673Y856234D01*
X812673Y860044D02*
X817753Y862584D01*
X819023Y867073D02*
X819023Y872153D01*
X817753Y877297D02*
X806323Y877297D01*
X806323Y880472D01*
X806325Y880583D01*
X806331Y880693D01*
X806340Y880804D01*
X806354Y880914D01*
X806371Y881023D01*
X806392Y881132D01*
X806417Y881240D01*
X806446Y881347D01*
X806478Y881453D01*
X806514Y881558D01*
X806554Y881661D01*
X806597Y881763D01*
X806644Y881864D01*
X806695Y881963D01*
X806748Y882060D01*
X806805Y882154D01*
X806866Y882247D01*
X806929Y882338D01*
X806996Y882427D01*
X807066Y882513D01*
X807139Y882596D01*
X807214Y882678D01*
X807292Y882756D01*
X807374Y882831D01*
X807457Y882904D01*
X807543Y882974D01*
X807632Y883041D01*
X807723Y883104D01*
X807816Y883165D01*
X807911Y883222D01*
X808007Y883275D01*
X808106Y883326D01*
X808207Y883373D01*
X808309Y883416D01*
X808412Y883456D01*
X808517Y883492D01*
X808623Y883524D01*
X808730Y883553D01*
X808838Y883578D01*
X808947Y883599D01*
X809056Y883616D01*
X809166Y883630D01*
X809277Y883639D01*
X809387Y883645D01*
X809498Y883647D01*
X809609Y883645D01*
X809719Y883639D01*
X809830Y883630D01*
X809940Y883616D01*
X810049Y883599D01*
X810158Y883578D01*
X810266Y883553D01*
X810373Y883524D01*
X810479Y883492D01*
X810584Y883456D01*
X810687Y883416D01*
X810789Y883373D01*
X810890Y883326D01*
X810989Y883275D01*
X811086Y883222D01*
X811180Y883165D01*
X811273Y883104D01*
X811364Y883041D01*
X811453Y882974D01*
X811539Y882904D01*
X811622Y882831D01*
X811704Y882756D01*
X811782Y882678D01*
X811857Y882596D01*
X811930Y882513D01*
X812000Y882427D01*
X812067Y882338D01*
X812130Y882247D01*
X812191Y882154D01*
X812248Y882060D01*
X812301Y881963D01*
X812352Y881864D01*
X812399Y881763D01*
X812442Y881661D01*
X812482Y881558D01*
X812518Y881453D01*
X812550Y881347D01*
X812579Y881240D01*
X812604Y881132D01*
X812625Y881023D01*
X812642Y880914D01*
X812656Y880804D01*
X812665Y880693D01*
X812671Y880583D01*
X812673Y880472D01*
X812673Y877297D01*
X817753Y889044D02*
X806323Y889044D01*
X817753Y887774D02*
X817753Y890314D01*
X806323Y890314D02*
X806323Y887774D01*
X806323Y895477D02*
X817753Y895477D01*
X806323Y895477D02*
X806323Y898652D01*
X806325Y898763D01*
X806331Y898873D01*
X806340Y898984D01*
X806354Y899094D01*
X806371Y899203D01*
X806392Y899312D01*
X806417Y899420D01*
X806446Y899527D01*
X806478Y899633D01*
X806514Y899738D01*
X806554Y899841D01*
X806597Y899943D01*
X806644Y900044D01*
X806695Y900143D01*
X806748Y900240D01*
X806805Y900334D01*
X806866Y900427D01*
X806929Y900518D01*
X806996Y900607D01*
X807066Y900693D01*
X807139Y900776D01*
X807214Y900858D01*
X807292Y900936D01*
X807374Y901011D01*
X807457Y901084D01*
X807543Y901154D01*
X807632Y901221D01*
X807723Y901284D01*
X807816Y901345D01*
X807911Y901402D01*
X808007Y901455D01*
X808106Y901506D01*
X808207Y901553D01*
X808309Y901596D01*
X808412Y901636D01*
X808517Y901672D01*
X808623Y901704D01*
X808730Y901733D01*
X808838Y901758D01*
X808947Y901779D01*
X809056Y901796D01*
X809166Y901810D01*
X809277Y901819D01*
X809387Y901825D01*
X809498Y901827D01*
X809609Y901825D01*
X809719Y901819D01*
X809830Y901810D01*
X809940Y901796D01*
X810049Y901779D01*
X810158Y901758D01*
X810266Y901733D01*
X810373Y901704D01*
X810479Y901672D01*
X810584Y901636D01*
X810687Y901596D01*
X810789Y901553D01*
X810890Y901506D01*
X810989Y901455D01*
X811086Y901402D01*
X811180Y901345D01*
X811273Y901284D01*
X811364Y901221D01*
X811453Y901154D01*
X811539Y901084D01*
X811622Y901011D01*
X811704Y900936D01*
X811782Y900858D01*
X811857Y900776D01*
X811930Y900693D01*
X812000Y900607D01*
X812067Y900518D01*
X812130Y900427D01*
X812191Y900334D01*
X812248Y900240D01*
X812301Y900143D01*
X812352Y900044D01*
X812399Y899943D01*
X812442Y899841D01*
X812482Y899738D01*
X812518Y899633D01*
X812550Y899527D01*
X812579Y899420D01*
X812604Y899312D01*
X812625Y899203D01*
X812642Y899094D01*
X812656Y898984D01*
X812665Y898873D01*
X812671Y898763D01*
X812673Y898652D01*
X812673Y895477D01*
X812673Y899287D02*
X817753Y901827D01*
D15*
X795700Y520500D02*
X795700Y495500D01*
X795700Y520500D02*
X880700Y520500D01*
X880700Y495500D01*
X795700Y495500D01*
X795700Y508000D02*
X797090Y508000D01*
X879310Y508000D02*
X880700Y508000D01*
D16*
X829276Y527358D02*
X829276Y539042D01*
X832522Y539042D01*
X832635Y539040D01*
X832748Y539034D01*
X832861Y539024D01*
X832974Y539010D01*
X833086Y538993D01*
X833197Y538971D01*
X833307Y538946D01*
X833417Y538916D01*
X833525Y538883D01*
X833632Y538846D01*
X833738Y538806D01*
X833842Y538761D01*
X833945Y538713D01*
X834046Y538662D01*
X834145Y538607D01*
X834242Y538549D01*
X834337Y538487D01*
X834430Y538422D01*
X834520Y538354D01*
X834608Y538283D01*
X834694Y538208D01*
X834777Y538131D01*
X834857Y538051D01*
X834934Y537968D01*
X835009Y537882D01*
X835080Y537794D01*
X835148Y537704D01*
X835213Y537611D01*
X835275Y537516D01*
X835333Y537419D01*
X835388Y537320D01*
X835439Y537219D01*
X835487Y537116D01*
X835532Y537012D01*
X835572Y536906D01*
X835609Y536799D01*
X835642Y536691D01*
X835672Y536581D01*
X835697Y536471D01*
X835719Y536360D01*
X835736Y536248D01*
X835750Y536135D01*
X835760Y536022D01*
X835766Y535909D01*
X835768Y535796D01*
X835766Y535683D01*
X835760Y535570D01*
X835750Y535457D01*
X835736Y535344D01*
X835719Y535232D01*
X835697Y535121D01*
X835672Y535011D01*
X835642Y534901D01*
X835609Y534793D01*
X835572Y534686D01*
X835532Y534580D01*
X835487Y534476D01*
X835439Y534373D01*
X835388Y534272D01*
X835333Y534173D01*
X835275Y534076D01*
X835213Y533981D01*
X835148Y533888D01*
X835080Y533798D01*
X835009Y533710D01*
X834934Y533624D01*
X834857Y533541D01*
X834777Y533461D01*
X834694Y533384D01*
X834608Y533309D01*
X834520Y533238D01*
X834430Y533170D01*
X834337Y533105D01*
X834242Y533043D01*
X834145Y532985D01*
X834046Y532930D01*
X833945Y532879D01*
X833842Y532831D01*
X833738Y532786D01*
X833632Y532746D01*
X833525Y532709D01*
X833417Y532676D01*
X833307Y532646D01*
X833197Y532621D01*
X833086Y532599D01*
X832974Y532582D01*
X832861Y532568D01*
X832748Y532558D01*
X832635Y532552D01*
X832522Y532550D01*
X832522Y532551D02*
X829276Y532551D01*
X833171Y532551D02*
X835767Y527358D01*
X847124Y536121D02*
X847122Y536228D01*
X847116Y536334D01*
X847106Y536440D01*
X847093Y536546D01*
X847075Y536652D01*
X847054Y536756D01*
X847029Y536860D01*
X847000Y536963D01*
X846968Y537064D01*
X846931Y537164D01*
X846891Y537263D01*
X846848Y537361D01*
X846801Y537457D01*
X846750Y537551D01*
X846696Y537643D01*
X846639Y537733D01*
X846579Y537821D01*
X846515Y537906D01*
X846448Y537989D01*
X846378Y538070D01*
X846306Y538148D01*
X846230Y538224D01*
X846152Y538296D01*
X846071Y538366D01*
X845988Y538433D01*
X845903Y538497D01*
X845815Y538557D01*
X845725Y538614D01*
X845633Y538668D01*
X845539Y538719D01*
X845443Y538766D01*
X845345Y538809D01*
X845246Y538849D01*
X845146Y538886D01*
X845045Y538918D01*
X844942Y538947D01*
X844838Y538972D01*
X844734Y538993D01*
X844628Y539011D01*
X844522Y539024D01*
X844416Y539034D01*
X844310Y539040D01*
X844203Y539042D01*
X844082Y539040D01*
X843961Y539034D01*
X843841Y539024D01*
X843720Y539011D01*
X843601Y538993D01*
X843481Y538972D01*
X843363Y538947D01*
X843246Y538918D01*
X843129Y538885D01*
X843014Y538849D01*
X842900Y538808D01*
X842787Y538765D01*
X842675Y538717D01*
X842566Y538666D01*
X842458Y538611D01*
X842351Y538553D01*
X842247Y538492D01*
X842145Y538427D01*
X842045Y538359D01*
X841947Y538288D01*
X841851Y538214D01*
X841758Y538137D01*
X841668Y538056D01*
X841580Y537973D01*
X841495Y537887D01*
X841412Y537798D01*
X841333Y537707D01*
X841256Y537613D01*
X841183Y537517D01*
X841113Y537419D01*
X841046Y537318D01*
X840982Y537215D01*
X840922Y537110D01*
X840865Y537003D01*
X840811Y536895D01*
X840761Y536785D01*
X840715Y536673D01*
X840672Y536560D01*
X840633Y536445D01*
X846150Y533849D02*
X846229Y533926D01*
X846305Y534007D01*
X846378Y534090D01*
X846448Y534175D01*
X846515Y534263D01*
X846579Y534353D01*
X846639Y534445D01*
X846696Y534540D01*
X846750Y534636D01*
X846801Y534734D01*
X846848Y534834D01*
X846892Y534936D01*
X846932Y535039D01*
X846968Y535143D01*
X847000Y535249D01*
X847029Y535355D01*
X847054Y535463D01*
X847076Y535571D01*
X847093Y535681D01*
X847107Y535790D01*
X847116Y535900D01*
X847122Y536011D01*
X847124Y536121D01*
X846150Y533849D02*
X840633Y527358D01*
X847124Y527358D01*
D15*
X596700Y414700D02*
X571700Y414700D01*
X571700Y499700D01*
X596700Y499700D01*
X596700Y414700D01*
X584200Y414700D02*
X584200Y416090D01*
X584200Y498310D02*
X584200Y499700D01*
D16*
X564842Y448276D02*
X553158Y448276D01*
X553158Y451522D01*
X553160Y451635D01*
X553166Y451748D01*
X553176Y451861D01*
X553190Y451974D01*
X553207Y452086D01*
X553229Y452197D01*
X553254Y452307D01*
X553284Y452417D01*
X553317Y452525D01*
X553354Y452632D01*
X553394Y452738D01*
X553439Y452842D01*
X553487Y452945D01*
X553538Y453046D01*
X553593Y453145D01*
X553651Y453242D01*
X553713Y453337D01*
X553778Y453430D01*
X553846Y453520D01*
X553917Y453608D01*
X553992Y453694D01*
X554069Y453777D01*
X554149Y453857D01*
X554232Y453934D01*
X554318Y454009D01*
X554406Y454080D01*
X554496Y454148D01*
X554589Y454213D01*
X554684Y454275D01*
X554781Y454333D01*
X554880Y454388D01*
X554981Y454439D01*
X555084Y454487D01*
X555188Y454532D01*
X555294Y454572D01*
X555401Y454609D01*
X555509Y454642D01*
X555619Y454672D01*
X555729Y454697D01*
X555840Y454719D01*
X555952Y454736D01*
X556065Y454750D01*
X556178Y454760D01*
X556291Y454766D01*
X556404Y454768D01*
X556517Y454766D01*
X556630Y454760D01*
X556743Y454750D01*
X556856Y454736D01*
X556968Y454719D01*
X557079Y454697D01*
X557189Y454672D01*
X557299Y454642D01*
X557407Y454609D01*
X557514Y454572D01*
X557620Y454532D01*
X557724Y454487D01*
X557827Y454439D01*
X557928Y454388D01*
X558027Y454333D01*
X558124Y454275D01*
X558219Y454213D01*
X558312Y454148D01*
X558402Y454080D01*
X558490Y454009D01*
X558576Y453934D01*
X558659Y453857D01*
X558739Y453777D01*
X558816Y453694D01*
X558891Y453608D01*
X558962Y453520D01*
X559030Y453430D01*
X559095Y453337D01*
X559157Y453242D01*
X559215Y453145D01*
X559270Y453046D01*
X559321Y452945D01*
X559369Y452842D01*
X559414Y452738D01*
X559454Y452632D01*
X559491Y452525D01*
X559524Y452417D01*
X559554Y452307D01*
X559579Y452197D01*
X559601Y452086D01*
X559618Y451974D01*
X559632Y451861D01*
X559642Y451748D01*
X559648Y451635D01*
X559650Y451522D01*
X559649Y451522D02*
X559649Y448276D01*
X559649Y452171D02*
X564842Y454767D01*
X555754Y459633D02*
X553158Y462878D01*
X564842Y462878D01*
X564842Y459633D02*
X564842Y466124D01*
D15*
X719500Y304600D02*
X719500Y279600D01*
X719500Y304600D02*
X804500Y304600D01*
X804500Y279600D01*
X719500Y279600D01*
X719500Y292100D02*
X720890Y292100D01*
X803110Y292100D02*
X804500Y292100D01*
D16*
X753076Y311458D02*
X753076Y323142D01*
X756322Y323142D01*
X756435Y323140D01*
X756548Y323134D01*
X756661Y323124D01*
X756774Y323110D01*
X756886Y323093D01*
X756997Y323071D01*
X757107Y323046D01*
X757217Y323016D01*
X757325Y322983D01*
X757432Y322946D01*
X757538Y322906D01*
X757642Y322861D01*
X757745Y322813D01*
X757846Y322762D01*
X757945Y322707D01*
X758042Y322649D01*
X758137Y322587D01*
X758230Y322522D01*
X758320Y322454D01*
X758408Y322383D01*
X758494Y322308D01*
X758577Y322231D01*
X758657Y322151D01*
X758734Y322068D01*
X758809Y321982D01*
X758880Y321894D01*
X758948Y321804D01*
X759013Y321711D01*
X759075Y321616D01*
X759133Y321519D01*
X759188Y321420D01*
X759239Y321319D01*
X759287Y321216D01*
X759332Y321112D01*
X759372Y321006D01*
X759409Y320899D01*
X759442Y320791D01*
X759472Y320681D01*
X759497Y320571D01*
X759519Y320460D01*
X759536Y320348D01*
X759550Y320235D01*
X759560Y320122D01*
X759566Y320009D01*
X759568Y319896D01*
X759566Y319783D01*
X759560Y319670D01*
X759550Y319557D01*
X759536Y319444D01*
X759519Y319332D01*
X759497Y319221D01*
X759472Y319111D01*
X759442Y319001D01*
X759409Y318893D01*
X759372Y318786D01*
X759332Y318680D01*
X759287Y318576D01*
X759239Y318473D01*
X759188Y318372D01*
X759133Y318273D01*
X759075Y318176D01*
X759013Y318081D01*
X758948Y317988D01*
X758880Y317898D01*
X758809Y317810D01*
X758734Y317724D01*
X758657Y317641D01*
X758577Y317561D01*
X758494Y317484D01*
X758408Y317409D01*
X758320Y317338D01*
X758230Y317270D01*
X758137Y317205D01*
X758042Y317143D01*
X757945Y317085D01*
X757846Y317030D01*
X757745Y316979D01*
X757642Y316931D01*
X757538Y316886D01*
X757432Y316846D01*
X757325Y316809D01*
X757217Y316776D01*
X757107Y316746D01*
X756997Y316721D01*
X756886Y316699D01*
X756774Y316682D01*
X756661Y316668D01*
X756548Y316658D01*
X756435Y316652D01*
X756322Y316650D01*
X756322Y316651D02*
X753076Y316651D01*
X756971Y316651D02*
X759567Y311458D01*
X764433Y311458D02*
X767678Y311458D01*
X767791Y311460D01*
X767904Y311466D01*
X768017Y311476D01*
X768130Y311490D01*
X768242Y311507D01*
X768353Y311529D01*
X768463Y311554D01*
X768573Y311584D01*
X768681Y311617D01*
X768788Y311654D01*
X768894Y311694D01*
X768998Y311739D01*
X769101Y311787D01*
X769202Y311838D01*
X769301Y311893D01*
X769398Y311951D01*
X769493Y312013D01*
X769586Y312078D01*
X769676Y312146D01*
X769764Y312217D01*
X769850Y312292D01*
X769933Y312369D01*
X770013Y312449D01*
X770090Y312532D01*
X770165Y312618D01*
X770236Y312706D01*
X770304Y312796D01*
X770369Y312889D01*
X770431Y312984D01*
X770489Y313081D01*
X770544Y313180D01*
X770595Y313281D01*
X770643Y313384D01*
X770688Y313488D01*
X770728Y313594D01*
X770765Y313701D01*
X770798Y313809D01*
X770828Y313919D01*
X770853Y314029D01*
X770875Y314140D01*
X770892Y314252D01*
X770906Y314365D01*
X770916Y314478D01*
X770922Y314591D01*
X770924Y314704D01*
X770922Y314817D01*
X770916Y314930D01*
X770906Y315043D01*
X770892Y315156D01*
X770875Y315268D01*
X770853Y315379D01*
X770828Y315489D01*
X770798Y315599D01*
X770765Y315707D01*
X770728Y315814D01*
X770688Y315920D01*
X770643Y316024D01*
X770595Y316127D01*
X770544Y316228D01*
X770489Y316327D01*
X770431Y316424D01*
X770369Y316519D01*
X770304Y316612D01*
X770236Y316702D01*
X770165Y316790D01*
X770090Y316876D01*
X770013Y316959D01*
X769933Y317039D01*
X769850Y317116D01*
X769764Y317191D01*
X769676Y317262D01*
X769586Y317330D01*
X769493Y317395D01*
X769398Y317457D01*
X769301Y317515D01*
X769202Y317570D01*
X769101Y317621D01*
X768998Y317669D01*
X768894Y317714D01*
X768788Y317754D01*
X768681Y317791D01*
X768573Y317824D01*
X768463Y317854D01*
X768353Y317879D01*
X768242Y317901D01*
X768130Y317918D01*
X768017Y317932D01*
X767904Y317942D01*
X767791Y317948D01*
X767678Y317950D01*
X768327Y323142D02*
X764433Y323142D01*
X768327Y323142D02*
X768428Y323140D01*
X768528Y323134D01*
X768628Y323124D01*
X768728Y323111D01*
X768827Y323093D01*
X768926Y323072D01*
X769023Y323047D01*
X769120Y323018D01*
X769215Y322985D01*
X769309Y322949D01*
X769401Y322909D01*
X769492Y322866D01*
X769581Y322819D01*
X769668Y322769D01*
X769754Y322715D01*
X769837Y322658D01*
X769917Y322598D01*
X769996Y322535D01*
X770072Y322468D01*
X770145Y322399D01*
X770215Y322327D01*
X770283Y322253D01*
X770348Y322176D01*
X770409Y322096D01*
X770468Y322014D01*
X770523Y321930D01*
X770575Y321844D01*
X770624Y321756D01*
X770669Y321666D01*
X770711Y321574D01*
X770749Y321481D01*
X770783Y321386D01*
X770814Y321291D01*
X770841Y321194D01*
X770864Y321096D01*
X770884Y320997D01*
X770899Y320897D01*
X770911Y320797D01*
X770919Y320697D01*
X770923Y320596D01*
X770923Y320496D01*
X770919Y320395D01*
X770911Y320295D01*
X770899Y320195D01*
X770884Y320095D01*
X770864Y319996D01*
X770841Y319898D01*
X770814Y319801D01*
X770783Y319706D01*
X770749Y319611D01*
X770711Y319518D01*
X770669Y319426D01*
X770624Y319336D01*
X770575Y319248D01*
X770523Y319162D01*
X770468Y319078D01*
X770409Y318996D01*
X770348Y318916D01*
X770283Y318839D01*
X770215Y318765D01*
X770145Y318693D01*
X770072Y318624D01*
X769996Y318557D01*
X769917Y318494D01*
X769837Y318434D01*
X769754Y318377D01*
X769668Y318323D01*
X769581Y318273D01*
X769492Y318226D01*
X769401Y318183D01*
X769309Y318143D01*
X769215Y318107D01*
X769120Y318074D01*
X769023Y318045D01*
X768926Y318020D01*
X768827Y317999D01*
X768728Y317981D01*
X768628Y317968D01*
X768528Y317958D01*
X768428Y317952D01*
X768327Y317950D01*
X768327Y317949D02*
X765731Y317949D01*
D15*
X1244800Y664800D02*
X1269800Y664800D01*
X1269800Y579800D01*
X1244800Y579800D01*
X1244800Y664800D01*
X1257300Y664800D02*
X1257300Y663410D01*
X1257300Y581190D02*
X1257300Y579800D01*
D16*
X1276658Y613376D02*
X1288342Y613376D01*
X1276658Y613376D02*
X1276658Y616622D01*
X1276660Y616735D01*
X1276666Y616848D01*
X1276676Y616961D01*
X1276690Y617074D01*
X1276707Y617186D01*
X1276729Y617297D01*
X1276754Y617407D01*
X1276784Y617517D01*
X1276817Y617625D01*
X1276854Y617732D01*
X1276894Y617838D01*
X1276939Y617942D01*
X1276987Y618045D01*
X1277038Y618146D01*
X1277093Y618245D01*
X1277151Y618342D01*
X1277213Y618437D01*
X1277278Y618530D01*
X1277346Y618620D01*
X1277417Y618708D01*
X1277492Y618794D01*
X1277569Y618877D01*
X1277649Y618957D01*
X1277732Y619034D01*
X1277818Y619109D01*
X1277906Y619180D01*
X1277996Y619248D01*
X1278089Y619313D01*
X1278184Y619375D01*
X1278281Y619433D01*
X1278380Y619488D01*
X1278481Y619539D01*
X1278584Y619587D01*
X1278688Y619632D01*
X1278794Y619672D01*
X1278901Y619709D01*
X1279009Y619742D01*
X1279119Y619772D01*
X1279229Y619797D01*
X1279340Y619819D01*
X1279452Y619836D01*
X1279565Y619850D01*
X1279678Y619860D01*
X1279791Y619866D01*
X1279904Y619868D01*
X1280017Y619866D01*
X1280130Y619860D01*
X1280243Y619850D01*
X1280356Y619836D01*
X1280468Y619819D01*
X1280579Y619797D01*
X1280689Y619772D01*
X1280799Y619742D01*
X1280907Y619709D01*
X1281014Y619672D01*
X1281120Y619632D01*
X1281224Y619587D01*
X1281327Y619539D01*
X1281428Y619488D01*
X1281527Y619433D01*
X1281624Y619375D01*
X1281719Y619313D01*
X1281812Y619248D01*
X1281902Y619180D01*
X1281990Y619109D01*
X1282076Y619034D01*
X1282159Y618957D01*
X1282239Y618877D01*
X1282316Y618794D01*
X1282391Y618708D01*
X1282462Y618620D01*
X1282530Y618530D01*
X1282595Y618437D01*
X1282657Y618342D01*
X1282715Y618245D01*
X1282770Y618146D01*
X1282821Y618045D01*
X1282869Y617942D01*
X1282914Y617838D01*
X1282954Y617732D01*
X1282991Y617625D01*
X1283024Y617517D01*
X1283054Y617407D01*
X1283079Y617297D01*
X1283101Y617186D01*
X1283118Y617074D01*
X1283132Y616961D01*
X1283142Y616848D01*
X1283148Y616735D01*
X1283150Y616622D01*
X1283149Y616622D02*
X1283149Y613376D01*
X1283149Y617271D02*
X1288342Y619867D01*
X1285746Y624733D02*
X1276658Y627329D01*
X1285746Y624733D02*
X1285746Y631224D01*
X1288342Y629276D02*
X1283149Y629276D01*
D12*
X880110Y345440D02*
X880110Y314960D01*
X897890Y314960D02*
X897890Y345440D01*
X897890Y314960D02*
X880110Y314960D01*
X880110Y345440D02*
X897890Y345440D01*
X889000Y335280D02*
X889000Y331470D01*
X894080Y321310D02*
X883920Y321310D01*
X889000Y331470D01*
X889000Y317500D01*
X894080Y321310D02*
X889000Y331470D01*
X883920Y331470D01*
X894080Y331470D02*
X894080Y328930D01*
X894080Y331470D02*
X889000Y331470D01*
D17*
X889000Y339725D03*
D18*
X889000Y307975D03*
X889000Y352425D03*
D10*
X901065Y301288D02*
X901065Y294938D01*
X901065Y301288D02*
X912495Y294938D01*
X912495Y301288D01*
X912495Y306394D02*
X912495Y311474D01*
X912495Y306394D02*
X901065Y306394D01*
X901065Y311474D01*
X906145Y310204D02*
X906145Y306394D01*
X901065Y316274D02*
X912495Y316274D01*
X912495Y322624D02*
X901065Y316274D01*
X901065Y322624D02*
X912495Y322624D01*
X912495Y328492D02*
X912495Y333572D01*
X912495Y328492D02*
X901065Y328492D01*
X901065Y333572D01*
X906145Y332302D02*
X906145Y328492D01*
X901065Y338455D02*
X912495Y338455D01*
X901065Y338455D02*
X901065Y341630D01*
X901067Y341741D01*
X901073Y341851D01*
X901082Y341962D01*
X901096Y342072D01*
X901113Y342181D01*
X901134Y342290D01*
X901159Y342398D01*
X901188Y342505D01*
X901220Y342611D01*
X901256Y342716D01*
X901296Y342819D01*
X901339Y342921D01*
X901386Y343022D01*
X901437Y343121D01*
X901490Y343218D01*
X901547Y343312D01*
X901608Y343405D01*
X901671Y343496D01*
X901738Y343585D01*
X901808Y343671D01*
X901881Y343754D01*
X901956Y343836D01*
X902034Y343914D01*
X902116Y343989D01*
X902199Y344062D01*
X902285Y344132D01*
X902374Y344199D01*
X902465Y344262D01*
X902558Y344323D01*
X902653Y344380D01*
X902749Y344433D01*
X902848Y344484D01*
X902949Y344531D01*
X903051Y344574D01*
X903154Y344614D01*
X903259Y344650D01*
X903365Y344682D01*
X903472Y344711D01*
X903580Y344736D01*
X903689Y344757D01*
X903798Y344774D01*
X903908Y344788D01*
X904019Y344797D01*
X904129Y344803D01*
X904240Y344805D01*
X904351Y344803D01*
X904461Y344797D01*
X904572Y344788D01*
X904682Y344774D01*
X904791Y344757D01*
X904900Y344736D01*
X905008Y344711D01*
X905115Y344682D01*
X905221Y344650D01*
X905326Y344614D01*
X905429Y344574D01*
X905531Y344531D01*
X905632Y344484D01*
X905731Y344433D01*
X905828Y344380D01*
X905922Y344323D01*
X906015Y344262D01*
X906106Y344199D01*
X906195Y344132D01*
X906281Y344062D01*
X906364Y343989D01*
X906446Y343914D01*
X906524Y343836D01*
X906599Y343754D01*
X906672Y343671D01*
X906742Y343585D01*
X906809Y343496D01*
X906872Y343405D01*
X906933Y343312D01*
X906990Y343218D01*
X907043Y343121D01*
X907094Y343022D01*
X907141Y342921D01*
X907184Y342819D01*
X907224Y342716D01*
X907260Y342611D01*
X907292Y342505D01*
X907321Y342398D01*
X907346Y342290D01*
X907367Y342181D01*
X907384Y342072D01*
X907398Y341962D01*
X907407Y341851D01*
X907413Y341741D01*
X907415Y341630D01*
X907415Y338455D01*
X907415Y342265D02*
X912495Y344805D01*
D12*
X977900Y398780D02*
X985520Y406400D01*
X977900Y398780D02*
X977900Y363220D01*
X985520Y355600D01*
X1071880Y355600D01*
X1079500Y363220D01*
X1079500Y398780D01*
X1071880Y406400D01*
D19*
X1054100Y400050D02*
X1054100Y412750D01*
X1047750Y406400D02*
X1060450Y406400D01*
X1009650Y406400D02*
X998220Y406400D01*
D16*
X996456Y426099D02*
X993211Y426099D01*
X996456Y426100D02*
X996569Y426098D01*
X996682Y426092D01*
X996795Y426082D01*
X996908Y426068D01*
X997020Y426051D01*
X997131Y426029D01*
X997241Y426004D01*
X997351Y425974D01*
X997459Y425941D01*
X997566Y425904D01*
X997672Y425864D01*
X997776Y425819D01*
X997879Y425771D01*
X997980Y425720D01*
X998079Y425665D01*
X998176Y425607D01*
X998271Y425545D01*
X998364Y425480D01*
X998454Y425412D01*
X998542Y425341D01*
X998628Y425266D01*
X998711Y425189D01*
X998791Y425109D01*
X998868Y425026D01*
X998943Y424940D01*
X999014Y424852D01*
X999082Y424762D01*
X999147Y424669D01*
X999209Y424574D01*
X999267Y424477D01*
X999322Y424378D01*
X999373Y424277D01*
X999421Y424174D01*
X999466Y424070D01*
X999506Y423964D01*
X999543Y423857D01*
X999576Y423749D01*
X999606Y423639D01*
X999631Y423529D01*
X999653Y423418D01*
X999670Y423306D01*
X999684Y423193D01*
X999694Y423080D01*
X999700Y422967D01*
X999702Y422854D01*
X999700Y422741D01*
X999694Y422628D01*
X999684Y422515D01*
X999670Y422402D01*
X999653Y422290D01*
X999631Y422179D01*
X999606Y422069D01*
X999576Y421959D01*
X999543Y421851D01*
X999506Y421744D01*
X999466Y421638D01*
X999421Y421534D01*
X999373Y421431D01*
X999322Y421330D01*
X999267Y421231D01*
X999209Y421134D01*
X999147Y421039D01*
X999082Y420946D01*
X999014Y420856D01*
X998943Y420768D01*
X998868Y420682D01*
X998791Y420599D01*
X998711Y420519D01*
X998628Y420442D01*
X998542Y420367D01*
X998454Y420296D01*
X998364Y420228D01*
X998271Y420163D01*
X998176Y420101D01*
X998079Y420043D01*
X997980Y419988D01*
X997879Y419937D01*
X997776Y419889D01*
X997672Y419844D01*
X997566Y419804D01*
X997459Y419767D01*
X997351Y419734D01*
X997241Y419704D01*
X997131Y419679D01*
X997020Y419657D01*
X996908Y419640D01*
X996795Y419626D01*
X996682Y419616D01*
X996569Y419610D01*
X996456Y419608D01*
X993211Y419608D01*
X993211Y431292D01*
X996456Y431292D01*
X996557Y431290D01*
X996657Y431284D01*
X996757Y431274D01*
X996857Y431261D01*
X996956Y431243D01*
X997055Y431222D01*
X997152Y431197D01*
X997249Y431168D01*
X997344Y431135D01*
X997438Y431099D01*
X997530Y431059D01*
X997621Y431016D01*
X997710Y430969D01*
X997797Y430919D01*
X997883Y430865D01*
X997966Y430808D01*
X998046Y430748D01*
X998125Y430685D01*
X998201Y430618D01*
X998274Y430549D01*
X998344Y430477D01*
X998412Y430403D01*
X998477Y430326D01*
X998538Y430246D01*
X998597Y430164D01*
X998652Y430080D01*
X998704Y429994D01*
X998753Y429906D01*
X998798Y429816D01*
X998840Y429724D01*
X998878Y429631D01*
X998912Y429536D01*
X998943Y429441D01*
X998970Y429344D01*
X998993Y429246D01*
X999013Y429147D01*
X999028Y429047D01*
X999040Y428947D01*
X999048Y428847D01*
X999052Y428746D01*
X999052Y428646D01*
X999048Y428545D01*
X999040Y428445D01*
X999028Y428345D01*
X999013Y428245D01*
X998993Y428146D01*
X998970Y428048D01*
X998943Y427951D01*
X998912Y427856D01*
X998878Y427761D01*
X998840Y427668D01*
X998798Y427576D01*
X998753Y427486D01*
X998704Y427398D01*
X998652Y427312D01*
X998597Y427228D01*
X998538Y427146D01*
X998477Y427066D01*
X998412Y426989D01*
X998344Y426915D01*
X998274Y426843D01*
X998201Y426774D01*
X998125Y426707D01*
X998046Y426644D01*
X997966Y426584D01*
X997883Y426527D01*
X997797Y426473D01*
X997710Y426423D01*
X997621Y426376D01*
X997530Y426333D01*
X997438Y426293D01*
X997344Y426257D01*
X997249Y426224D01*
X997152Y426195D01*
X997055Y426170D01*
X996956Y426149D01*
X996857Y426131D01*
X996757Y426118D01*
X996657Y426108D01*
X996557Y426102D01*
X996456Y426100D01*
X1003441Y419608D02*
X1007336Y431292D01*
X1011230Y419608D01*
X1010257Y422529D02*
X1004415Y422529D01*
X1018004Y419608D02*
X1018004Y431292D01*
X1021249Y431292D02*
X1014758Y431292D01*
X1027910Y431292D02*
X1027910Y419608D01*
X1024664Y431292D02*
X1031155Y431292D01*
X1035736Y419608D02*
X1040929Y419608D01*
X1035736Y419608D02*
X1035736Y431292D01*
X1040929Y431292D01*
X1039630Y426099D02*
X1035736Y426099D01*
X1045693Y431292D02*
X1045693Y419608D01*
X1045693Y431292D02*
X1048938Y431292D01*
X1049051Y431290D01*
X1049164Y431284D01*
X1049277Y431274D01*
X1049390Y431260D01*
X1049502Y431243D01*
X1049613Y431221D01*
X1049723Y431196D01*
X1049833Y431166D01*
X1049941Y431133D01*
X1050048Y431096D01*
X1050154Y431056D01*
X1050258Y431011D01*
X1050361Y430963D01*
X1050462Y430912D01*
X1050561Y430857D01*
X1050658Y430799D01*
X1050753Y430737D01*
X1050846Y430672D01*
X1050936Y430604D01*
X1051024Y430533D01*
X1051110Y430458D01*
X1051193Y430381D01*
X1051273Y430301D01*
X1051350Y430218D01*
X1051425Y430132D01*
X1051496Y430044D01*
X1051564Y429954D01*
X1051629Y429861D01*
X1051691Y429766D01*
X1051749Y429669D01*
X1051804Y429570D01*
X1051855Y429469D01*
X1051903Y429366D01*
X1051948Y429262D01*
X1051988Y429156D01*
X1052025Y429049D01*
X1052058Y428941D01*
X1052088Y428831D01*
X1052113Y428721D01*
X1052135Y428610D01*
X1052152Y428498D01*
X1052166Y428385D01*
X1052176Y428272D01*
X1052182Y428159D01*
X1052184Y428046D01*
X1052182Y427933D01*
X1052176Y427820D01*
X1052166Y427707D01*
X1052152Y427594D01*
X1052135Y427482D01*
X1052113Y427371D01*
X1052088Y427261D01*
X1052058Y427151D01*
X1052025Y427043D01*
X1051988Y426936D01*
X1051948Y426830D01*
X1051903Y426726D01*
X1051855Y426623D01*
X1051804Y426522D01*
X1051749Y426423D01*
X1051691Y426326D01*
X1051629Y426231D01*
X1051564Y426138D01*
X1051496Y426048D01*
X1051425Y425960D01*
X1051350Y425874D01*
X1051273Y425791D01*
X1051193Y425711D01*
X1051110Y425634D01*
X1051024Y425559D01*
X1050936Y425488D01*
X1050846Y425420D01*
X1050753Y425355D01*
X1050658Y425293D01*
X1050561Y425235D01*
X1050462Y425180D01*
X1050361Y425129D01*
X1050258Y425081D01*
X1050154Y425036D01*
X1050048Y424996D01*
X1049941Y424959D01*
X1049833Y424926D01*
X1049723Y424896D01*
X1049613Y424871D01*
X1049502Y424849D01*
X1049390Y424832D01*
X1049277Y424818D01*
X1049164Y424808D01*
X1049051Y424802D01*
X1048938Y424800D01*
X1048938Y424801D02*
X1045693Y424801D01*
X1049587Y424801D02*
X1052184Y419608D01*
X1060295Y425775D02*
X1056400Y431292D01*
X1060295Y425775D02*
X1064189Y431292D01*
X1060295Y425775D02*
X1060295Y419608D01*
D10*
X137100Y285600D02*
X137100Y222400D01*
X359400Y333400D02*
X486400Y333400D01*
X359400Y333400D02*
X359400Y301650D01*
X359400Y285600D01*
X359400Y222400D01*
X359400Y206350D01*
X359400Y174600D01*
X486400Y174600D01*
X486400Y333400D01*
X359400Y301650D02*
X264100Y301650D01*
X264100Y285600D01*
X264100Y222400D01*
X264100Y206350D01*
X359400Y206350D01*
X264100Y285600D02*
X137100Y285600D01*
X137100Y222400D02*
X264100Y222400D01*
D16*
X495808Y195735D02*
X507492Y195735D01*
X495808Y195735D02*
X495808Y198981D01*
X495810Y199094D01*
X495816Y199207D01*
X495826Y199320D01*
X495840Y199433D01*
X495857Y199545D01*
X495879Y199656D01*
X495904Y199766D01*
X495934Y199876D01*
X495967Y199984D01*
X496004Y200091D01*
X496044Y200197D01*
X496089Y200301D01*
X496137Y200404D01*
X496188Y200505D01*
X496243Y200604D01*
X496301Y200701D01*
X496363Y200796D01*
X496428Y200889D01*
X496496Y200979D01*
X496567Y201067D01*
X496642Y201153D01*
X496719Y201236D01*
X496799Y201316D01*
X496882Y201393D01*
X496968Y201468D01*
X497056Y201539D01*
X497146Y201607D01*
X497239Y201672D01*
X497334Y201734D01*
X497431Y201792D01*
X497530Y201847D01*
X497631Y201898D01*
X497734Y201946D01*
X497838Y201991D01*
X497944Y202031D01*
X498051Y202068D01*
X498159Y202101D01*
X498269Y202131D01*
X498379Y202156D01*
X498490Y202178D01*
X498602Y202195D01*
X498715Y202209D01*
X498828Y202219D01*
X498941Y202225D01*
X499054Y202227D01*
X499167Y202225D01*
X499280Y202219D01*
X499393Y202209D01*
X499506Y202195D01*
X499618Y202178D01*
X499729Y202156D01*
X499839Y202131D01*
X499949Y202101D01*
X500057Y202068D01*
X500164Y202031D01*
X500270Y201991D01*
X500374Y201946D01*
X500477Y201898D01*
X500578Y201847D01*
X500677Y201792D01*
X500774Y201734D01*
X500869Y201672D01*
X500962Y201607D01*
X501052Y201539D01*
X501140Y201468D01*
X501226Y201393D01*
X501309Y201316D01*
X501389Y201236D01*
X501466Y201153D01*
X501541Y201067D01*
X501612Y200979D01*
X501680Y200889D01*
X501745Y200796D01*
X501807Y200701D01*
X501865Y200604D01*
X501920Y200505D01*
X501971Y200404D01*
X502019Y200301D01*
X502064Y200197D01*
X502104Y200091D01*
X502141Y199984D01*
X502174Y199876D01*
X502204Y199766D01*
X502229Y199656D01*
X502251Y199545D01*
X502268Y199433D01*
X502282Y199320D01*
X502292Y199207D01*
X502298Y199094D01*
X502300Y198981D01*
X502299Y198981D02*
X502299Y195735D01*
X504246Y206615D02*
X499054Y206615D01*
X498941Y206617D01*
X498828Y206623D01*
X498715Y206633D01*
X498602Y206647D01*
X498490Y206664D01*
X498379Y206686D01*
X498269Y206711D01*
X498159Y206741D01*
X498051Y206774D01*
X497944Y206811D01*
X497838Y206851D01*
X497734Y206896D01*
X497631Y206944D01*
X497530Y206995D01*
X497431Y207050D01*
X497334Y207108D01*
X497239Y207170D01*
X497146Y207235D01*
X497056Y207303D01*
X496968Y207374D01*
X496882Y207449D01*
X496799Y207526D01*
X496719Y207606D01*
X496642Y207689D01*
X496567Y207775D01*
X496496Y207863D01*
X496428Y207953D01*
X496363Y208046D01*
X496301Y208141D01*
X496243Y208238D01*
X496188Y208337D01*
X496137Y208438D01*
X496089Y208541D01*
X496044Y208645D01*
X496004Y208751D01*
X495967Y208858D01*
X495934Y208966D01*
X495904Y209076D01*
X495879Y209186D01*
X495857Y209297D01*
X495840Y209409D01*
X495826Y209522D01*
X495816Y209635D01*
X495810Y209748D01*
X495808Y209861D01*
X495810Y209974D01*
X495816Y210087D01*
X495826Y210200D01*
X495840Y210313D01*
X495857Y210425D01*
X495879Y210536D01*
X495904Y210646D01*
X495934Y210756D01*
X495967Y210864D01*
X496004Y210971D01*
X496044Y211077D01*
X496089Y211181D01*
X496137Y211284D01*
X496188Y211385D01*
X496243Y211484D01*
X496301Y211581D01*
X496363Y211676D01*
X496428Y211769D01*
X496496Y211859D01*
X496567Y211947D01*
X496642Y212033D01*
X496719Y212116D01*
X496799Y212196D01*
X496882Y212273D01*
X496968Y212348D01*
X497056Y212419D01*
X497146Y212487D01*
X497239Y212552D01*
X497334Y212614D01*
X497431Y212672D01*
X497530Y212727D01*
X497631Y212778D01*
X497734Y212826D01*
X497838Y212871D01*
X497944Y212911D01*
X498051Y212948D01*
X498159Y212981D01*
X498269Y213011D01*
X498379Y213036D01*
X498490Y213058D01*
X498602Y213075D01*
X498715Y213089D01*
X498828Y213099D01*
X498941Y213105D01*
X499054Y213107D01*
X499054Y213106D02*
X504246Y213106D01*
X504246Y213107D02*
X504359Y213105D01*
X504472Y213099D01*
X504585Y213089D01*
X504698Y213075D01*
X504810Y213058D01*
X504921Y213036D01*
X505031Y213011D01*
X505141Y212981D01*
X505249Y212948D01*
X505356Y212911D01*
X505462Y212871D01*
X505566Y212826D01*
X505669Y212778D01*
X505770Y212727D01*
X505869Y212672D01*
X505966Y212614D01*
X506061Y212552D01*
X506154Y212487D01*
X506244Y212419D01*
X506332Y212348D01*
X506418Y212273D01*
X506501Y212196D01*
X506581Y212116D01*
X506658Y212033D01*
X506733Y211947D01*
X506804Y211859D01*
X506872Y211769D01*
X506937Y211676D01*
X506999Y211581D01*
X507057Y211484D01*
X507112Y211385D01*
X507163Y211284D01*
X507211Y211181D01*
X507256Y211077D01*
X507296Y210971D01*
X507333Y210864D01*
X507366Y210756D01*
X507396Y210646D01*
X507421Y210536D01*
X507443Y210425D01*
X507460Y210313D01*
X507474Y210200D01*
X507484Y210087D01*
X507490Y209974D01*
X507492Y209861D01*
X507490Y209748D01*
X507484Y209635D01*
X507474Y209522D01*
X507460Y209409D01*
X507443Y209297D01*
X507421Y209186D01*
X507396Y209076D01*
X507366Y208966D01*
X507333Y208858D01*
X507296Y208751D01*
X507256Y208645D01*
X507211Y208541D01*
X507163Y208438D01*
X507112Y208337D01*
X507057Y208238D01*
X506999Y208141D01*
X506937Y208046D01*
X506872Y207953D01*
X506804Y207863D01*
X506733Y207775D01*
X506658Y207689D01*
X506581Y207606D01*
X506501Y207526D01*
X506418Y207449D01*
X506332Y207374D01*
X506244Y207303D01*
X506154Y207235D01*
X506061Y207170D01*
X505966Y207108D01*
X505869Y207050D01*
X505770Y206995D01*
X505669Y206944D01*
X505566Y206896D01*
X505462Y206851D01*
X505356Y206811D01*
X505249Y206774D01*
X505141Y206741D01*
X505031Y206711D01*
X504921Y206686D01*
X504810Y206664D01*
X504698Y206647D01*
X504585Y206633D01*
X504472Y206623D01*
X504359Y206617D01*
X504246Y206615D01*
X507492Y220529D02*
X495808Y220529D01*
X495808Y223774D02*
X495808Y217283D01*
X507492Y228355D02*
X507492Y233548D01*
X507492Y228355D02*
X495808Y228355D01*
X495808Y233548D01*
X501001Y232249D02*
X501001Y228355D01*
X495808Y238238D02*
X507492Y238238D01*
X507492Y244729D02*
X495808Y238238D01*
X495808Y244729D02*
X507492Y244729D01*
X507492Y252612D02*
X507492Y255209D01*
X507492Y252612D02*
X507490Y252513D01*
X507484Y252413D01*
X507475Y252314D01*
X507462Y252216D01*
X507445Y252118D01*
X507424Y252020D01*
X507399Y251924D01*
X507371Y251829D01*
X507339Y251735D01*
X507304Y251642D01*
X507265Y251550D01*
X507222Y251460D01*
X507177Y251372D01*
X507127Y251285D01*
X507075Y251201D01*
X507019Y251118D01*
X506961Y251038D01*
X506899Y250960D01*
X506834Y250885D01*
X506766Y250812D01*
X506696Y250742D01*
X506623Y250674D01*
X506548Y250609D01*
X506470Y250547D01*
X506390Y250489D01*
X506307Y250433D01*
X506223Y250381D01*
X506136Y250331D01*
X506048Y250286D01*
X505958Y250243D01*
X505866Y250204D01*
X505773Y250169D01*
X505679Y250137D01*
X505584Y250109D01*
X505488Y250084D01*
X505390Y250063D01*
X505292Y250046D01*
X505194Y250033D01*
X505095Y250024D01*
X504995Y250018D01*
X504896Y250016D01*
X498404Y250016D01*
X498404Y250015D02*
X498305Y250017D01*
X498205Y250023D01*
X498106Y250032D01*
X498008Y250045D01*
X497910Y250063D01*
X497812Y250083D01*
X497716Y250108D01*
X497620Y250136D01*
X497526Y250168D01*
X497433Y250203D01*
X497342Y250242D01*
X497252Y250285D01*
X497163Y250330D01*
X497077Y250380D01*
X496992Y250432D01*
X496910Y250488D01*
X496830Y250547D01*
X496752Y250608D01*
X496676Y250673D01*
X496603Y250741D01*
X496533Y250811D01*
X496465Y250884D01*
X496400Y250960D01*
X496339Y251038D01*
X496280Y251118D01*
X496224Y251200D01*
X496172Y251285D01*
X496123Y251371D01*
X496077Y251460D01*
X496034Y251550D01*
X495995Y251641D01*
X495960Y251734D01*
X495928Y251828D01*
X495900Y251924D01*
X495875Y252020D01*
X495855Y252118D01*
X495837Y252216D01*
X495824Y252314D01*
X495815Y252413D01*
X495809Y252512D01*
X495807Y252612D01*
X495808Y252612D02*
X495808Y255209D01*
X495808Y260534D02*
X507492Y260534D01*
X507492Y261832D02*
X507492Y259235D01*
X495808Y259235D02*
X495808Y261832D01*
X499054Y266432D02*
X504246Y266432D01*
X499054Y266432D02*
X498941Y266434D01*
X498828Y266440D01*
X498715Y266450D01*
X498602Y266464D01*
X498490Y266481D01*
X498379Y266503D01*
X498269Y266528D01*
X498159Y266558D01*
X498051Y266591D01*
X497944Y266628D01*
X497838Y266668D01*
X497734Y266713D01*
X497631Y266761D01*
X497530Y266812D01*
X497431Y266867D01*
X497334Y266925D01*
X497239Y266987D01*
X497146Y267052D01*
X497056Y267120D01*
X496968Y267191D01*
X496882Y267266D01*
X496799Y267343D01*
X496719Y267423D01*
X496642Y267506D01*
X496567Y267592D01*
X496496Y267680D01*
X496428Y267770D01*
X496363Y267863D01*
X496301Y267958D01*
X496243Y268055D01*
X496188Y268154D01*
X496137Y268255D01*
X496089Y268358D01*
X496044Y268462D01*
X496004Y268568D01*
X495967Y268675D01*
X495934Y268783D01*
X495904Y268893D01*
X495879Y269003D01*
X495857Y269114D01*
X495840Y269226D01*
X495826Y269339D01*
X495816Y269452D01*
X495810Y269565D01*
X495808Y269678D01*
X495810Y269791D01*
X495816Y269904D01*
X495826Y270017D01*
X495840Y270130D01*
X495857Y270242D01*
X495879Y270353D01*
X495904Y270463D01*
X495934Y270573D01*
X495967Y270681D01*
X496004Y270788D01*
X496044Y270894D01*
X496089Y270998D01*
X496137Y271101D01*
X496188Y271202D01*
X496243Y271301D01*
X496301Y271398D01*
X496363Y271493D01*
X496428Y271586D01*
X496496Y271676D01*
X496567Y271764D01*
X496642Y271850D01*
X496719Y271933D01*
X496799Y272013D01*
X496882Y272090D01*
X496968Y272165D01*
X497056Y272236D01*
X497146Y272304D01*
X497239Y272369D01*
X497334Y272431D01*
X497431Y272489D01*
X497530Y272544D01*
X497631Y272595D01*
X497734Y272643D01*
X497838Y272688D01*
X497944Y272728D01*
X498051Y272765D01*
X498159Y272798D01*
X498269Y272828D01*
X498379Y272853D01*
X498490Y272875D01*
X498602Y272892D01*
X498715Y272906D01*
X498828Y272916D01*
X498941Y272922D01*
X499054Y272924D01*
X499054Y272923D02*
X504246Y272923D01*
X504246Y272924D02*
X504359Y272922D01*
X504472Y272916D01*
X504585Y272906D01*
X504698Y272892D01*
X504810Y272875D01*
X504921Y272853D01*
X505031Y272828D01*
X505141Y272798D01*
X505249Y272765D01*
X505356Y272728D01*
X505462Y272688D01*
X505566Y272643D01*
X505669Y272595D01*
X505770Y272544D01*
X505869Y272489D01*
X505966Y272431D01*
X506061Y272369D01*
X506154Y272304D01*
X506244Y272236D01*
X506332Y272165D01*
X506418Y272090D01*
X506501Y272013D01*
X506581Y271933D01*
X506658Y271850D01*
X506733Y271764D01*
X506804Y271676D01*
X506872Y271586D01*
X506937Y271493D01*
X506999Y271398D01*
X507057Y271301D01*
X507112Y271202D01*
X507163Y271101D01*
X507211Y270998D01*
X507256Y270894D01*
X507296Y270788D01*
X507333Y270681D01*
X507366Y270573D01*
X507396Y270463D01*
X507421Y270353D01*
X507443Y270242D01*
X507460Y270130D01*
X507474Y270017D01*
X507484Y269904D01*
X507490Y269791D01*
X507492Y269678D01*
X507490Y269565D01*
X507484Y269452D01*
X507474Y269339D01*
X507460Y269226D01*
X507443Y269114D01*
X507421Y269003D01*
X507396Y268893D01*
X507366Y268783D01*
X507333Y268675D01*
X507296Y268568D01*
X507256Y268462D01*
X507211Y268358D01*
X507163Y268255D01*
X507112Y268154D01*
X507057Y268055D01*
X506999Y267958D01*
X506937Y267863D01*
X506872Y267770D01*
X506804Y267680D01*
X506733Y267592D01*
X506658Y267506D01*
X506581Y267423D01*
X506501Y267343D01*
X506418Y267266D01*
X506332Y267191D01*
X506244Y267120D01*
X506154Y267052D01*
X506061Y266987D01*
X505966Y266925D01*
X505869Y266867D01*
X505770Y266812D01*
X505669Y266761D01*
X505566Y266713D01*
X505462Y266668D01*
X505356Y266628D01*
X505249Y266591D01*
X505141Y266558D01*
X505031Y266528D01*
X504921Y266503D01*
X504810Y266481D01*
X504698Y266464D01*
X504585Y266450D01*
X504472Y266440D01*
X504359Y266434D01*
X504246Y266432D01*
X507492Y278356D02*
X495808Y278356D01*
X502299Y282251D01*
X495808Y286145D01*
X507492Y286145D01*
X507492Y291982D02*
X507492Y297174D01*
X507492Y291982D02*
X495808Y291982D01*
X495808Y297174D01*
X501001Y295876D02*
X501001Y291982D01*
X495808Y303968D02*
X507492Y303968D01*
X495808Y300722D02*
X495808Y307213D01*
X495808Y311845D02*
X507492Y311845D01*
X495808Y311845D02*
X495808Y315090D01*
X495810Y315203D01*
X495816Y315316D01*
X495826Y315429D01*
X495840Y315542D01*
X495857Y315654D01*
X495879Y315765D01*
X495904Y315875D01*
X495934Y315985D01*
X495967Y316093D01*
X496004Y316200D01*
X496044Y316306D01*
X496089Y316410D01*
X496137Y316513D01*
X496188Y316614D01*
X496243Y316713D01*
X496301Y316810D01*
X496363Y316905D01*
X496428Y316998D01*
X496496Y317088D01*
X496567Y317176D01*
X496642Y317262D01*
X496719Y317345D01*
X496799Y317425D01*
X496882Y317502D01*
X496968Y317577D01*
X497056Y317648D01*
X497146Y317716D01*
X497239Y317781D01*
X497334Y317843D01*
X497431Y317901D01*
X497530Y317956D01*
X497631Y318007D01*
X497734Y318055D01*
X497838Y318100D01*
X497944Y318140D01*
X498051Y318177D01*
X498159Y318210D01*
X498269Y318240D01*
X498379Y318265D01*
X498490Y318287D01*
X498602Y318304D01*
X498715Y318318D01*
X498828Y318328D01*
X498941Y318334D01*
X499054Y318336D01*
X499167Y318334D01*
X499280Y318328D01*
X499393Y318318D01*
X499506Y318304D01*
X499618Y318287D01*
X499729Y318265D01*
X499839Y318240D01*
X499949Y318210D01*
X500057Y318177D01*
X500164Y318140D01*
X500270Y318100D01*
X500374Y318055D01*
X500477Y318007D01*
X500578Y317956D01*
X500677Y317901D01*
X500774Y317843D01*
X500869Y317781D01*
X500962Y317716D01*
X501052Y317648D01*
X501140Y317577D01*
X501226Y317502D01*
X501309Y317425D01*
X501389Y317345D01*
X501466Y317262D01*
X501541Y317176D01*
X501612Y317088D01*
X501680Y316998D01*
X501745Y316905D01*
X501807Y316810D01*
X501865Y316713D01*
X501920Y316614D01*
X501971Y316513D01*
X502019Y316410D01*
X502064Y316306D01*
X502104Y316200D01*
X502141Y316093D01*
X502174Y315985D01*
X502204Y315875D01*
X502229Y315765D01*
X502251Y315654D01*
X502268Y315542D01*
X502282Y315429D01*
X502292Y315316D01*
X502298Y315203D01*
X502300Y315090D01*
X502299Y315090D02*
X502299Y311845D01*
X502299Y315739D02*
X507492Y318336D01*
X504246Y323201D02*
X499054Y323201D01*
X499054Y323200D02*
X498941Y323202D01*
X498828Y323208D01*
X498715Y323218D01*
X498602Y323232D01*
X498490Y323249D01*
X498379Y323271D01*
X498269Y323296D01*
X498159Y323326D01*
X498051Y323359D01*
X497944Y323396D01*
X497838Y323436D01*
X497734Y323481D01*
X497631Y323529D01*
X497530Y323580D01*
X497431Y323635D01*
X497334Y323693D01*
X497239Y323755D01*
X497146Y323820D01*
X497056Y323888D01*
X496968Y323959D01*
X496882Y324034D01*
X496799Y324111D01*
X496719Y324191D01*
X496642Y324274D01*
X496567Y324360D01*
X496496Y324448D01*
X496428Y324538D01*
X496363Y324631D01*
X496301Y324726D01*
X496243Y324823D01*
X496188Y324922D01*
X496137Y325023D01*
X496089Y325126D01*
X496044Y325230D01*
X496004Y325336D01*
X495967Y325443D01*
X495934Y325551D01*
X495904Y325661D01*
X495879Y325771D01*
X495857Y325882D01*
X495840Y325994D01*
X495826Y326107D01*
X495816Y326220D01*
X495810Y326333D01*
X495808Y326446D01*
X495810Y326559D01*
X495816Y326672D01*
X495826Y326785D01*
X495840Y326898D01*
X495857Y327010D01*
X495879Y327121D01*
X495904Y327231D01*
X495934Y327341D01*
X495967Y327449D01*
X496004Y327556D01*
X496044Y327662D01*
X496089Y327766D01*
X496137Y327869D01*
X496188Y327970D01*
X496243Y328069D01*
X496301Y328166D01*
X496363Y328261D01*
X496428Y328354D01*
X496496Y328444D01*
X496567Y328532D01*
X496642Y328618D01*
X496719Y328701D01*
X496799Y328781D01*
X496882Y328858D01*
X496968Y328933D01*
X497056Y329004D01*
X497146Y329072D01*
X497239Y329137D01*
X497334Y329199D01*
X497431Y329257D01*
X497530Y329312D01*
X497631Y329363D01*
X497734Y329411D01*
X497838Y329456D01*
X497944Y329496D01*
X498051Y329533D01*
X498159Y329566D01*
X498269Y329596D01*
X498379Y329621D01*
X498490Y329643D01*
X498602Y329660D01*
X498715Y329674D01*
X498828Y329684D01*
X498941Y329690D01*
X499054Y329692D01*
X504246Y329692D01*
X504359Y329690D01*
X504472Y329684D01*
X504585Y329674D01*
X504698Y329660D01*
X504810Y329643D01*
X504921Y329621D01*
X505031Y329596D01*
X505141Y329566D01*
X505249Y329533D01*
X505356Y329496D01*
X505462Y329456D01*
X505566Y329411D01*
X505669Y329363D01*
X505770Y329312D01*
X505869Y329257D01*
X505966Y329199D01*
X506061Y329137D01*
X506154Y329072D01*
X506244Y329004D01*
X506332Y328933D01*
X506418Y328858D01*
X506501Y328781D01*
X506581Y328701D01*
X506658Y328618D01*
X506733Y328532D01*
X506804Y328444D01*
X506872Y328354D01*
X506937Y328261D01*
X506999Y328166D01*
X507057Y328069D01*
X507112Y327970D01*
X507163Y327869D01*
X507211Y327766D01*
X507256Y327662D01*
X507296Y327556D01*
X507333Y327449D01*
X507366Y327341D01*
X507396Y327231D01*
X507421Y327121D01*
X507443Y327010D01*
X507460Y326898D01*
X507474Y326785D01*
X507484Y326672D01*
X507490Y326559D01*
X507492Y326446D01*
X507490Y326333D01*
X507484Y326220D01*
X507474Y326107D01*
X507460Y325994D01*
X507443Y325882D01*
X507421Y325771D01*
X507396Y325661D01*
X507366Y325551D01*
X507333Y325443D01*
X507296Y325336D01*
X507256Y325230D01*
X507211Y325126D01*
X507163Y325023D01*
X507112Y324922D01*
X507057Y324823D01*
X506999Y324726D01*
X506937Y324631D01*
X506872Y324538D01*
X506804Y324448D01*
X506733Y324360D01*
X506658Y324274D01*
X506581Y324191D01*
X506501Y324111D01*
X506418Y324034D01*
X506332Y323959D01*
X506244Y323888D01*
X506154Y323820D01*
X506061Y323755D01*
X505966Y323693D01*
X505869Y323635D01*
X505770Y323580D01*
X505669Y323529D01*
X505566Y323481D01*
X505462Y323436D01*
X505356Y323396D01*
X505249Y323359D01*
X505141Y323326D01*
X505031Y323296D01*
X504921Y323271D01*
X504810Y323249D01*
X504698Y323232D01*
X504585Y323218D01*
X504472Y323208D01*
X504359Y323202D01*
X504246Y323200D01*
M02*
