G04 EAGLE Gerber RS-274X export*
G75*
%MOMM*%
%FSLAX34Y34*%
%LPD*%
%INSilkscreen Bottom*%
%IPPOS*%
%AMOC8*
5,1,8,0,0,1.08239X$1,22.5*%
G01*
%ADD10C,0.127000*%
%ADD11C,0.200000*%
%ADD12C,0.152400*%


D10*
X600710Y313050D02*
X600710Y271150D01*
X572841Y267970D02*
X572257Y268253D01*
X571681Y268551D01*
X571112Y268862D01*
X570551Y269187D01*
X569998Y269526D01*
X569453Y269878D01*
X568917Y270243D01*
X568390Y270621D01*
X567873Y271012D01*
X567365Y271415D01*
X566867Y271831D01*
X566379Y272258D01*
X565902Y272697D01*
X565435Y273148D01*
X564980Y273610D01*
X564536Y274083D01*
X564104Y274566D01*
X563683Y275060D01*
X563275Y275564D01*
X562879Y276078D01*
X562496Y276601D01*
X562125Y277133D01*
X561768Y277675D01*
X561424Y278224D01*
X561093Y278782D01*
X560776Y279348D01*
X560473Y279921D01*
X560184Y280502D01*
X559909Y281089D01*
X559648Y281683D01*
X559402Y282283D01*
X559171Y282889D01*
X558954Y283501D01*
X558753Y284117D01*
X558566Y284738D01*
X558395Y285364D01*
X558239Y285993D01*
X558098Y286626D01*
X557972Y287263D01*
X557863Y287902D01*
X557768Y288543D01*
X557690Y289187D01*
X557627Y289833D01*
X557579Y290480D01*
X557548Y291127D01*
X557532Y291776D01*
X557532Y292424D01*
X557548Y293073D01*
X557579Y293720D01*
X557627Y294367D01*
X557690Y295013D01*
X557768Y295657D01*
X557863Y296298D01*
X557972Y296937D01*
X558098Y297574D01*
X558239Y298207D01*
X558395Y298836D01*
X558566Y299462D01*
X558753Y300083D01*
X558954Y300699D01*
X559171Y301311D01*
X559402Y301917D01*
X559648Y302517D01*
X559909Y303111D01*
X560184Y303698D01*
X560473Y304279D01*
X560776Y304852D01*
X561093Y305418D01*
X561424Y305976D01*
X561768Y306525D01*
X562125Y307067D01*
X562496Y307599D01*
X562879Y308122D01*
X563275Y308636D01*
X563683Y309140D01*
X564104Y309634D01*
X564536Y310117D01*
X564980Y310590D01*
X565435Y311052D01*
X565902Y311503D01*
X566379Y311942D01*
X566867Y312369D01*
X567365Y312785D01*
X567873Y313188D01*
X568390Y313579D01*
X568917Y313957D01*
X569453Y314322D01*
X569998Y314674D01*
X570551Y315013D01*
X571112Y315338D01*
X571681Y315649D01*
X572257Y315947D01*
X572841Y316230D01*
X595559Y316235D02*
X596105Y315970D01*
X596645Y315693D01*
X597178Y315404D01*
X597705Y315102D01*
X598225Y314789D01*
X598738Y314464D01*
X599243Y314127D01*
X599740Y313779D01*
X600229Y313420D01*
X600710Y313050D01*
X585470Y306140D02*
X585470Y303460D01*
X585470Y280740D02*
X585470Y278060D01*
X595318Y267853D02*
X595891Y268124D01*
X596457Y268409D01*
X597016Y268706D01*
X597568Y269017D01*
X598112Y269342D01*
X598648Y269678D01*
X599177Y270028D01*
X599697Y270390D01*
X600208Y270764D01*
X600710Y271150D01*
X549910Y299454D02*
X544830Y299454D01*
X549910Y299454D02*
X550021Y299456D01*
X550131Y299462D01*
X550242Y299471D01*
X550352Y299485D01*
X550461Y299502D01*
X550570Y299523D01*
X550678Y299548D01*
X550785Y299577D01*
X550891Y299609D01*
X550996Y299645D01*
X551099Y299685D01*
X551201Y299728D01*
X551302Y299775D01*
X551401Y299826D01*
X551498Y299879D01*
X551592Y299936D01*
X551685Y299997D01*
X551776Y300060D01*
X551865Y300127D01*
X551951Y300197D01*
X552034Y300270D01*
X552116Y300345D01*
X552194Y300423D01*
X552269Y300505D01*
X552342Y300588D01*
X552412Y300674D01*
X552479Y300763D01*
X552542Y300854D01*
X552603Y300947D01*
X552660Y301041D01*
X552713Y301138D01*
X552764Y301237D01*
X552811Y301338D01*
X552854Y301440D01*
X552894Y301543D01*
X552930Y301648D01*
X552962Y301754D01*
X552991Y301861D01*
X553016Y301969D01*
X553037Y302078D01*
X553054Y302187D01*
X553068Y302297D01*
X553077Y302408D01*
X553083Y302518D01*
X553085Y302629D01*
X553083Y302740D01*
X553077Y302850D01*
X553068Y302961D01*
X553054Y303071D01*
X553037Y303180D01*
X553016Y303289D01*
X552991Y303397D01*
X552962Y303504D01*
X552930Y303610D01*
X552894Y303715D01*
X552854Y303818D01*
X552811Y303920D01*
X552764Y304021D01*
X552713Y304120D01*
X552660Y304216D01*
X552603Y304311D01*
X552542Y304404D01*
X552479Y304495D01*
X552412Y304584D01*
X552342Y304670D01*
X552269Y304753D01*
X552194Y304835D01*
X552116Y304913D01*
X552034Y304988D01*
X551951Y305061D01*
X551865Y305131D01*
X551776Y305198D01*
X551685Y305261D01*
X551592Y305322D01*
X551498Y305379D01*
X551401Y305432D01*
X551302Y305483D01*
X551201Y305530D01*
X551099Y305573D01*
X550996Y305613D01*
X550891Y305649D01*
X550785Y305681D01*
X550678Y305710D01*
X550570Y305735D01*
X550461Y305756D01*
X550352Y305773D01*
X550242Y305787D01*
X550131Y305796D01*
X550021Y305802D01*
X549910Y305804D01*
X544830Y305804D01*
X544719Y305802D01*
X544609Y305796D01*
X544498Y305787D01*
X544388Y305773D01*
X544279Y305756D01*
X544170Y305735D01*
X544062Y305710D01*
X543955Y305681D01*
X543849Y305649D01*
X543744Y305613D01*
X543641Y305573D01*
X543539Y305530D01*
X543438Y305483D01*
X543339Y305432D01*
X543243Y305379D01*
X543148Y305322D01*
X543055Y305261D01*
X542964Y305198D01*
X542875Y305131D01*
X542789Y305061D01*
X542706Y304988D01*
X542624Y304913D01*
X542546Y304835D01*
X542471Y304753D01*
X542398Y304670D01*
X542328Y304584D01*
X542261Y304495D01*
X542198Y304404D01*
X542137Y304311D01*
X542080Y304217D01*
X542027Y304120D01*
X541976Y304021D01*
X541929Y303920D01*
X541886Y303818D01*
X541846Y303715D01*
X541810Y303610D01*
X541778Y303504D01*
X541749Y303397D01*
X541724Y303289D01*
X541703Y303180D01*
X541686Y303071D01*
X541672Y302961D01*
X541663Y302850D01*
X541657Y302740D01*
X541655Y302629D01*
X541657Y302518D01*
X541663Y302408D01*
X541672Y302297D01*
X541686Y302187D01*
X541703Y302078D01*
X541724Y301969D01*
X541749Y301861D01*
X541778Y301754D01*
X541810Y301648D01*
X541846Y301543D01*
X541886Y301440D01*
X541929Y301338D01*
X541976Y301237D01*
X542027Y301138D01*
X542080Y301042D01*
X542137Y300947D01*
X542198Y300854D01*
X542261Y300763D01*
X542328Y300674D01*
X542398Y300588D01*
X542471Y300505D01*
X542546Y300423D01*
X542624Y300345D01*
X542706Y300270D01*
X542789Y300197D01*
X542875Y300127D01*
X542964Y300060D01*
X543055Y299997D01*
X543148Y299936D01*
X543243Y299879D01*
X543339Y299826D01*
X543438Y299775D01*
X543539Y299728D01*
X543641Y299685D01*
X543744Y299645D01*
X543849Y299609D01*
X543955Y299577D01*
X544062Y299548D01*
X544170Y299523D01*
X544279Y299502D01*
X544388Y299485D01*
X544498Y299471D01*
X544609Y299462D01*
X544719Y299456D01*
X544830Y299454D01*
X544195Y304534D02*
X541655Y307074D01*
X550545Y310515D02*
X553085Y313690D01*
X541655Y313690D01*
X541655Y310515D02*
X541655Y316865D01*
X493400Y455300D02*
X446400Y455300D01*
X493400Y455300D02*
X493400Y560700D01*
X446400Y560700D01*
X446400Y455300D01*
D11*
X440900Y478000D02*
X440902Y478063D01*
X440908Y478125D01*
X440918Y478187D01*
X440931Y478249D01*
X440949Y478309D01*
X440970Y478368D01*
X440995Y478426D01*
X441024Y478482D01*
X441056Y478536D01*
X441091Y478588D01*
X441129Y478637D01*
X441171Y478685D01*
X441215Y478729D01*
X441263Y478771D01*
X441312Y478809D01*
X441364Y478844D01*
X441418Y478876D01*
X441474Y478905D01*
X441532Y478930D01*
X441591Y478951D01*
X441651Y478969D01*
X441713Y478982D01*
X441775Y478992D01*
X441837Y478998D01*
X441900Y479000D01*
X441963Y478998D01*
X442025Y478992D01*
X442087Y478982D01*
X442149Y478969D01*
X442209Y478951D01*
X442268Y478930D01*
X442326Y478905D01*
X442382Y478876D01*
X442436Y478844D01*
X442488Y478809D01*
X442537Y478771D01*
X442585Y478729D01*
X442629Y478685D01*
X442671Y478637D01*
X442709Y478588D01*
X442744Y478536D01*
X442776Y478482D01*
X442805Y478426D01*
X442830Y478368D01*
X442851Y478309D01*
X442869Y478249D01*
X442882Y478187D01*
X442892Y478125D01*
X442898Y478063D01*
X442900Y478000D01*
X442898Y477937D01*
X442892Y477875D01*
X442882Y477813D01*
X442869Y477751D01*
X442851Y477691D01*
X442830Y477632D01*
X442805Y477574D01*
X442776Y477518D01*
X442744Y477464D01*
X442709Y477412D01*
X442671Y477363D01*
X442629Y477315D01*
X442585Y477271D01*
X442537Y477229D01*
X442488Y477191D01*
X442436Y477156D01*
X442382Y477124D01*
X442326Y477095D01*
X442268Y477070D01*
X442209Y477049D01*
X442149Y477031D01*
X442087Y477018D01*
X442025Y477008D01*
X441963Y477002D01*
X441900Y477000D01*
X441837Y477002D01*
X441775Y477008D01*
X441713Y477018D01*
X441651Y477031D01*
X441591Y477049D01*
X441532Y477070D01*
X441474Y477095D01*
X441418Y477124D01*
X441364Y477156D01*
X441312Y477191D01*
X441263Y477229D01*
X441215Y477271D01*
X441171Y477315D01*
X441129Y477363D01*
X441091Y477412D01*
X441056Y477464D01*
X441024Y477518D01*
X440995Y477574D01*
X440970Y477632D01*
X440949Y477691D01*
X440931Y477751D01*
X440918Y477813D01*
X440908Y477875D01*
X440902Y477937D01*
X440900Y478000D01*
D12*
X500662Y454181D02*
X516918Y448762D01*
X516918Y459599D02*
X500662Y454181D01*
X500662Y465909D02*
X516918Y465909D01*
X516918Y470425D01*
X516916Y470558D01*
X516910Y470690D01*
X516900Y470822D01*
X516887Y470954D01*
X516869Y471086D01*
X516848Y471216D01*
X516823Y471347D01*
X516794Y471476D01*
X516761Y471604D01*
X516725Y471732D01*
X516685Y471858D01*
X516641Y471983D01*
X516593Y472107D01*
X516542Y472229D01*
X516487Y472350D01*
X516429Y472469D01*
X516367Y472587D01*
X516302Y472702D01*
X516233Y472816D01*
X516162Y472927D01*
X516086Y473036D01*
X516008Y473143D01*
X515927Y473248D01*
X515842Y473350D01*
X515755Y473450D01*
X515665Y473547D01*
X515572Y473642D01*
X515476Y473733D01*
X515378Y473822D01*
X515277Y473908D01*
X515173Y473991D01*
X515067Y474071D01*
X514959Y474147D01*
X514849Y474221D01*
X514736Y474291D01*
X514622Y474358D01*
X514505Y474421D01*
X514387Y474481D01*
X514267Y474538D01*
X514145Y474591D01*
X514022Y474640D01*
X513898Y474686D01*
X513772Y474728D01*
X513645Y474766D01*
X513517Y474801D01*
X513388Y474832D01*
X513259Y474859D01*
X513128Y474882D01*
X512997Y474902D01*
X512865Y474917D01*
X512733Y474929D01*
X512601Y474937D01*
X512468Y474941D01*
X512336Y474941D01*
X512203Y474937D01*
X512071Y474929D01*
X511939Y474917D01*
X511807Y474902D01*
X511676Y474882D01*
X511545Y474859D01*
X511416Y474832D01*
X511287Y474801D01*
X511159Y474766D01*
X511032Y474728D01*
X510906Y474686D01*
X510782Y474640D01*
X510659Y474591D01*
X510537Y474538D01*
X510417Y474481D01*
X510299Y474421D01*
X510182Y474358D01*
X510068Y474291D01*
X509955Y474221D01*
X509845Y474147D01*
X509737Y474071D01*
X509631Y473991D01*
X509527Y473908D01*
X509426Y473822D01*
X509328Y473733D01*
X509232Y473642D01*
X509139Y473547D01*
X509049Y473450D01*
X508962Y473350D01*
X508877Y473248D01*
X508796Y473143D01*
X508718Y473036D01*
X508642Y472927D01*
X508571Y472816D01*
X508502Y472702D01*
X508437Y472587D01*
X508375Y472469D01*
X508317Y472350D01*
X508262Y472229D01*
X508211Y472107D01*
X508163Y471983D01*
X508119Y471858D01*
X508079Y471732D01*
X508043Y471604D01*
X508010Y471476D01*
X507981Y471347D01*
X507956Y471216D01*
X507935Y471086D01*
X507917Y470954D01*
X507904Y470822D01*
X507894Y470690D01*
X507888Y470558D01*
X507886Y470425D01*
X507887Y470425D02*
X507887Y465909D01*
X507887Y471328D02*
X500662Y474940D01*
X513306Y481449D02*
X516918Y485964D01*
X500662Y485964D01*
X500662Y481449D02*
X500662Y490480D01*
M02*
