M48
;GenerationSoftware,Autodesk,EAGLE,9.6.2*%
;CreationDate,2025-05-11T23:29:26Z*%
FMAT,2
ICI,OFF
METRIC,TZ,000.000
T7C0.813
T6C0.830
T5C1.000
T4C1.016
T3C1.118
T2C1.219
T1C1.240
%
G90
M71
T1
X46480Y48260
X46480Y53340
X46480Y50800
T2
X127000Y80010
X121920Y80010
T3
X105410Y38100
X100330Y38100
T4
X106680Y74854
X106680Y85065
X99060Y80010
X78105Y76200
X78105Y73660
X78105Y71120
X106680Y59690
X99035Y59690
T5
X28455Y53340
X19805Y53340
X72905Y50800
X64255Y50800
X98545Y50800
X107195Y50800
X46990Y27940
X46990Y25400
X46990Y22860
T6
X78740Y50800
X88900Y50800
X58420Y40640
X58420Y50800
X71120Y29210
X81280Y29210
X125730Y67310
X125730Y57150
T7
X58420Y29210
X58420Y26670
X58420Y31750
X88900Y36830
X88900Y29210
X125730Y74930
X123190Y74930
M30